<?xml version="1.0" encoding="UTF-8" standalone="no"?>
<svg
   xmlns:dc="http://purl.org/dc/elements/1.1/"
   xmlns:cc="http://creativecommons.org/ns#"
   xmlns:rdf="http://www.w3.org/1999/02/22-rdf-syntax-ns#"
   xmlns:svg="http://www.w3.org/2000/svg"
   xmlns="http://www.w3.org/2000/svg"
   version="1.1"
   id="svg2"
   viewBox="0 0 300.00001 73.064003"
   height="73.064003"
   width="300">
  <defs
     id="defs4" />
  <metadata
     id="metadata7">
    <rdf:RDF>
      <cc:Work
         rdf:about="">
        <dc:format>image/svg+xml</dc:format>
        <dc:type
           rdf:resource="http://purl.org/dc/dcmitype/StillImage" />
        <dc:title></dc:title>
      </cc:Work>
    </rdf:RDF>
  </metadata>
  <g
     transform="translate(0,-979.29816)"
     id="layer1">
    <g
       style="opacity:1;fill:none;stroke:#ffffff;stroke-opacity:1"
       id="g11978"
       transform="matrix(2.8476982,0,0,2.8476982,-2502.0546,375.2177)">
      <path
         id="path13256"
         style="fill:none;stroke:#ffffff;stroke-width:0.41832367;stroke-opacity:1"
         d="m 913.51138,229.23694 -0.41641,-0.84047 -0.83281,-0.42024 -1.24928,0 -0.83283,0.42024 -0.41642,0.42023 -0.41642,1.26071 0,1.26071 0.41642,0.84047 0.83283,0.42026 1.24925,0 0.83284,-0.42026 0.41642,-0.84047 m -2.08209,-3.36189 -0.83283,0.84047 -0.41642,1.26071 0,1.26071 0.41642,0.84047 0.41641,0.42026 m 2.91492,-4.62262 -0.41641,3.36189 0,0.84047 0.83283,0.42026 0.83283,0 0.83287,-0.8405 0.41639,-1.2607 0,-0.84048 -0.41639,-1.2607 -0.41645,-0.84047 -0.83283,-0.8405 -0.83284,-0.42024 -1.24922,-0.42024 -1.24928,0 -1.24925,0.42024 -0.83283,0.42024 -0.83284,0.8405 -0.41644,0.84047 -0.41639,1.2607 0,1.26071 0.41639,1.26071 0.41644,0.8405 0.83284,0.84047 0.83283,0.42024 1.24925,0.42023 1.24928,0 1.24922,-0.42023 0.83284,-0.42024 0.41641,-0.42023 m -0.83283,-5.4631 -0.41642,3.36189 0,0.84047 0.41642,0.42026" />
      <path
         id="path13258"
         style="fill:none;stroke:#ffffff;stroke-width:0.28680587;stroke-opacity:1"
         d="m 918.44954,227.32547 0,6.0505 m 0,-6.0505 2.56949,0 0.85649,0.28812 0.28552,0.28812 0.2855,0.57623 0,0.86436 -0.2855,0.57623 -0.28552,0.28812 -0.85649,0.28812 -2.56949,0" />
      <path
         id="path13260"
         style="fill:none;stroke:#ffffff;stroke-width:0.28680587;stroke-opacity:1"
         d="m 924.44501,229.3423 0,4.03367 m 0,-2.30497 0.28549,-0.86435 0.57102,-0.57623 0.571,-0.28812 0.85648,0" />
      <path
         id="path13262"
         style="fill:none;stroke:#ffffff;stroke-width:0.28680587;stroke-opacity:1"
         d="m 929.29852,229.3423 -0.57099,0.28812 -0.57102,0.57623 -0.28549,0.86435 0,0.57624 0.28549,0.86438 0.57102,0.57624 0.57099,0.28811 0.85646,0 0.57102,-0.28811 0.571,-0.57624 0.28549,-0.86438 0,-0.57624 -0.28549,-0.86435 -0.571,-0.57623 -0.57102,-0.28812 -0.85646,0" />
      <path
         id="path13264"
         style="fill:none;stroke:#ffffff;stroke-width:0.28680587;stroke-opacity:1"
         d="m 933.86652,227.32547 0,4.898 0.28549,0.86439 0.57099,0.28811 0.57099,0 m -2.28399,-4.03367 1.9985,0" />
      <path
         id="path13266"
         style="fill:none;stroke:#ffffff;stroke-width:0.28680587;stroke-opacity:1"
         d="m 938.14898,229.3423 -0.57099,0.28812 -0.57102,0.57623 -0.2855,0.86435 0,0.57624 0.2855,0.86438 0.57102,0.57624 0.57099,0.28811 0.85652,0 0.57099,-0.28811 0.57099,-0.57624 0.28553,-0.86438 0,-0.57624 -0.28553,-0.86435 -0.57099,-0.57623 -0.57099,-0.28812 -0.85652,0" />
      <path
         id="path13268"
         style="fill:none;stroke:#ffffff;stroke-width:0.28680587;stroke-opacity:1"
         d="m 942.43148,229.3423 0,4.03367 m 0,-2.8812 0.85648,-0.86435 0.57103,-0.28812 0.85648,0 0.57099,0.28812 0.28553,0.86435 0,2.8812" />
      <path
         id="path13270"
         style="fill:none;stroke:#ffffff;stroke-width:0.28680587;stroke-opacity:1"
         d="m 947.85596,227.32547 0,6.0505 m 0,-6.0505 2.28399,6.0505 m 2.28403,-6.0505 -2.28403,6.0505 m 2.28403,-6.0505 0,6.0505" />
      <path
         id="path13272"
         style="fill:none;stroke:#ffffff;stroke-width:0.28680587;stroke-opacity:1"
         d="m 957.84845,229.3423 0,4.03367 m 0,-3.16932 -0.57102,-0.57623 -0.57099,-0.28812 -0.85649,0 -0.57102,0.28812 -0.57099,0.57623 -0.28549,0.86435 0,0.57624 0.28549,0.86438 0.57099,0.57624 0.57102,0.28811 0.85649,0 0.57099,-0.28811 0.57102,-0.57624" />
      <path
         id="path13274"
         style="fill:none;stroke:#ffffff;stroke-width:0.28680587;stroke-opacity:1"
         d="m 959.84693,227.32547 0.28549,0.28812 0.2855,-0.28812 -0.2855,-0.28811 -0.28549,0.28811 m 0.28549,2.01683 0,4.03367" />
      <path
         id="path13276"
         style="fill:none;stroke:#ffffff;stroke-width:0.28680587;stroke-opacity:1"
         d="m 962.41645,227.32547 0,6.0505" />
      <path
         id="path13278"
         style="fill:none;stroke:#ffffff;stroke-width:0.28680587;stroke-opacity:1"
         d="m 964.70041,231.93536 -0.28549,0.28811 0.28549,0.28815 0.2855,-0.28815 -0.2855,-0.28811" />
      <path
         id="path13280"
         style="fill:none;stroke:#ffffff;stroke-width:0.28680587;stroke-opacity:1"
         d="m 970.12489,230.20665 -0.57096,-0.57623 -0.57102,-0.28812 -0.85649,0 -0.57099,0.28812 -0.57102,0.57623 -0.2855,0.86435 0,0.57624 0.2855,0.86438 0.57102,0.57624 0.57099,0.28811 0.85649,0 0.57102,-0.28811 0.57096,-0.57624" />
      <path
         id="path13282"
         style="fill:none;stroke:#ffffff;stroke-width:0.28680587;stroke-opacity:1"
         d="m 973.2654,229.3423 -0.57099,0.28812 -0.57102,0.57623 -0.2855,0.86435 0,0.57624 0.2855,0.86438 0.57102,0.57624 0.57099,0.28811 0.85649,0 0.57102,-0.28811 0.57099,-0.57624 0.28547,-0.86438 0,-0.57624 -0.28547,-0.86435 -0.57099,-0.57623 -0.57102,-0.28812 -0.85649,0" />
      <path
         id="path13284"
         style="fill:none;stroke:#ffffff;stroke-width:0.28680587;stroke-opacity:1"
         d="m 977.5479,229.3423 0,4.03367 m 0,-2.8812 0.85649,-0.86435 0.57099,-0.28812 0.85651,0 0.571,0.28812 0.28549,0.86435 0,2.8812 m 0,-2.8812 0.85649,-0.86435 0.57099,-0.28812 0.85652,0 0.57099,0.28812 0.28549,0.86435 0,2.8812" />
      <path
         id="path13462"
         style="fill:none;stroke:#ffffff;stroke-width:0.28680587;stroke-opacity:1"
         d="m 908.33064,216.53922 0,6.0505 m 0,-6.0505 2.28403,6.0505 m 2.28396,-6.0505 -2.28396,6.0505 m 2.28396,-6.0505 0,6.0505" />
      <path
         id="path13464"
         style="fill:none;stroke:#ffffff;stroke-width:0.28680587;stroke-opacity:1"
         d="m 914.89713,216.53922 0.28553,0.28812 0.28549,-0.28812 -0.28549,-0.28812 -0.28553,0.28812 m 0.28553,2.01683 0,4.03367" />
      <path
         id="path13466"
         style="fill:none;stroke:#ffffff;stroke-width:0.28680587;stroke-opacity:1"
         d="m 920.32164,219.42043 -0.28553,-0.57627 -0.85648,-0.28811 -0.85649,0 -0.85649,0.28811 -0.28549,0.57627 0.28549,0.57623 0.57099,0.28812 1.42748,0.28812 0.57099,0.28812 0.28553,0.57623 0,0.28812 -0.28553,0.57623 -0.85648,0.28812 -0.85649,0 -0.85649,-0.28812 -0.28549,-0.57623" />
      <path
         id="path13468"
         style="fill:none;stroke:#ffffff;stroke-width:0.28680587;stroke-opacity:1"
         d="m 922.60563,216.53922 0,4.89803 0.2855,0.86435 0.57099,0.28812 0.57102,0 m -2.28402,-4.03367 1.99853,0" />
      <path
         id="path13470"
         style="fill:none;stroke:#ffffff;stroke-width:0.28680587;stroke-opacity:1"
         d="m 925.46062,220.28478 3.42601,0 0,-0.57624 -0.2855,-0.57623 -0.28552,-0.28815 -0.57099,-0.28811 -0.85652,0 -0.57099,0.28811 -0.57099,0.57627 -0.2855,0.86435 0,0.57624 0.2855,0.86435 0.57099,0.57623 0.57099,0.28812 0.85652,0 0.57099,-0.28812 0.57102,-0.57623" />
      <path
         id="path13472"
         style="fill:none;stroke:#ffffff;stroke-width:0.28680587;stroke-opacity:1"
         d="m 930.8851,218.55605 0,4.03367 m 0,-2.30494 0.2855,-0.86435 0.57099,-0.57627 0.57102,-0.28811 0.85649,0" />
      <path
         id="path13474"
         style="fill:none;stroke:#ffffff;stroke-width:0.28680587;stroke-opacity:1"
         d="m 938.59357,217.97981 -0.28549,-0.57624 -0.57099,-0.57623 -0.57099,-0.28812 -1.14202,0 -0.57096,0.28812 -0.57102,0.57623 -0.2855,0.57624 -0.28549,0.86435 0,1.44062 0.28549,0.86435 0.2855,0.57624 0.57102,0.57623 0.57096,0.28812 1.14202,0 0.57099,-0.28812 0.57099,-0.57623 0.28549,-0.57624" />
      <path
         id="path13476"
         style="fill:none;stroke:#ffffff;stroke-width:0.28680587;stroke-opacity:1"
         d="m 940.5921,216.53922 0,6.0505 m 0,-2.88118 0.85646,-0.86438 0.57099,-0.28811 0.85652,0 0.57099,0.28811 0.2855,0.86438 0,2.88118" />
      <path
         id="path13478"
         style="fill:none;stroke:#ffffff;stroke-width:0.28680587;stroke-opacity:1"
         d="m 949.15706,218.55605 0,4.03367 m 0,-3.16929 -0.57102,-0.57627 -0.57099,-0.28811 -0.85648,0 -0.571,0.28811 -0.57099,0.57627 -0.28549,0.86435 0,0.57624 0.28549,0.86435 0.57099,0.57623 0.571,0.28812 0.85648,0 0.57099,-0.28812 0.57102,-0.57623" />
      <path
         id="path13480"
         style="fill:none;stroke:#ffffff;stroke-width:0.28680587;stroke-opacity:1"
         d="m 951.44106,216.53922 0,6.0505" />
      <path
         id="path13482"
         style="fill:none;stroke:#ffffff;stroke-width:0.28680587;stroke-opacity:1"
         d="m 953.72503,218.55605 0,4.03367 m 0,-2.88118 0.85651,-0.86438 0.571,-0.28811 0.85651,0 0.57099,0.28811 0.2855,0.86438 0,2.88118 m 0,-2.88118 0.85652,-0.86438 0.57099,-0.28811 0.85648,0 0.571,0.28811 0.28549,0.86438 0,2.88118" />
      <path
         id="path13484"
         style="fill:none;stroke:#ffffff;stroke-width:0.28680587;stroke-opacity:1"
         d="m 962.00452,220.28478 3.42598,0 0,-0.57624 -0.28549,-0.57623 -0.2855,-0.28815 -0.57099,-0.28811 -0.85649,0 -0.57099,0.28811 -0.57099,0.57627 -0.28553,0.86435 0,0.57624 0.28553,0.86435 0.57099,0.57623 0.57099,0.28812 0.85649,0 0.57099,-0.28812 0.57099,-0.57623" />
      <path
         id="path13486"
         style="fill:none;stroke:#ffffff;stroke-width:0.28680587;stroke-opacity:1"
         d="m 967.42903,218.55605 0,4.03367 m 0,-2.30494 0.28549,-0.86435 0.571,-0.57627 0.57099,-0.28811 0.85651,0" />
      <path
         id="path13488"
         style="fill:none;stroke:#ffffff;stroke-width:0.28680587;stroke-opacity:1"
         d="m 973.99549,219.42043 -0.28549,-0.57627 -0.85649,-0.28811 -0.85652,0 -0.85649,0.28811 -0.28549,0.57627 0.28549,0.57623 0.571,0.28812 1.4275,0.28812 0.571,0.28812 0.28549,0.57623 0,0.28812 -0.28549,0.57623 -0.85649,0.28812 -0.85652,0 -0.85649,-0.28812 -0.28549,-0.57623" />
      <path
         id="ellipse13606"
         d="m 903.60983,224.95799 a 12.270292,12.38286 0 0 1 -12.27029,12.38286 12.270292,12.38286 0 0 1 -12.27029,-12.38286 12.270292,12.38286 0 0 1 12.27029,-12.38286 12.270292,12.38286 0 0 1 12.27029,12.38286 z"
         style="fill:none;stroke:#ffffff;stroke-width:0.8914932;stroke-linejoin:round;stroke-miterlimit:4;stroke-dasharray:none;stroke-opacity:1" />
      <path
         id="ellipse13624"
         d="m 889.50662,225.24043 a 3.2246399,3.2542231 0 0 1 -3.22464,3.25423 3.2246399,3.2542231 0 0 1 -3.22464,-3.25423 3.2246399,3.2542231 0 0 1 3.22464,-3.25422 3.2246399,3.2542231 0 0 1 3.22464,3.25422 z"
         style="fill:none;stroke:#ffffff;stroke-width:0.8914932;stroke-linejoin:round;stroke-miterlimit:4;stroke-dasharray:none;stroke-opacity:1" />
      <path
         id="ellipse13626"
         d="m 899.66763,225.24043 a 3.2246399,3.2542231 0 0 1 -3.22464,3.25423 3.2246399,3.2542231 0 0 1 -3.22464,-3.25423 3.2246399,3.2542231 0 0 1 3.22464,-3.25422 3.2246399,3.2542231 0 0 1 3.22464,3.25422 z"
         style="fill:none;stroke:#ffffff;stroke-width:0.8914932;stroke-linejoin:round;stroke-miterlimit:4;stroke-dasharray:none;stroke-opacity:1" />
    </g>
  </g>
</svg>
