<?xml version="1.0" encoding="UTF-8" standalone="no"?>
<svg
   xmlns:dc="http://purl.org/dc/elements/1.1/"
   xmlns:cc="http://creativecommons.org/ns#"
   xmlns:rdf="http://www.w3.org/1999/02/22-rdf-syntax-ns#"
   xmlns:svg="http://www.w3.org/2000/svg"
   xmlns="http://www.w3.org/2000/svg"
   version="1.1"
   id="svg2"
   viewBox="0 0 248.0315 248.03149"
   height="70mm"
   width="70mm">
  <defs
     id="defs4" />
  <metadata
     id="metadata7">
    <rdf:RDF>
      <cc:Work
         rdf:about="">
        <dc:format>image/svg+xml</dc:format>
        <dc:type
           rdf:resource="http://purl.org/dc/dcmitype/StillImage" />
        <dc:title></dc:title>
      </cc:Work>
    </rdf:RDF>
  </metadata>
  <g
     id="layer1"
     transform="translate(0,-804.33071)" />
  <g
     transform="translate(0,3.9370078e-6)"
     id="layer3">
    <path
       d=""
       style="fill:none;stroke:#000000;stroke-width:0.30101201"
       id="path5329" />
    <path
       d=""
       style="fill:none;stroke:#000000;stroke-width:0.30101201"
       id="path5341" />
    <path
       d=""
       style="fill:none;stroke:#000000;stroke-width:0.30101201"
       id="path5357" />
    <path
       id="path5719"
       style="fill:none;stroke:#000000;stroke-width:0.28793129"
       d="" />
    <path
       id="path5723"
       style="fill:none;stroke:#000000;stroke-width:0.28793129"
       d="" />
    <path
       id="path5731"
       style="fill:none;stroke:#000000;stroke-width:0.28793129"
       d="" />
    <path
       id="path5735"
       style="fill:none;stroke:#000000;stroke-width:0.28793129"
       d="" />
    <path
       id="path5745"
       style="fill:none;stroke:#000000;stroke-width:0.28793129"
       d="" />
    <path
       d=""
       style="fill:none;stroke:#000000;stroke-width:0.28324676"
       id="path6153" />
    <path
       d=""
       style="fill:none;stroke:#000000;stroke-width:0.28324676"
       id="path6167" />
    <path
       d=""
       style="fill:none;stroke:#000000;stroke-width:0.28324676"
       id="path6173" />
    <path
       d=""
       style="fill:none;stroke:#000000;stroke-width:0.28324676"
       id="path6179" />
    <path
       d=""
       style="fill:none;stroke:#000000;stroke-width:0.28324676"
       id="path6189" />
    <path
       d=""
       style="fill:none;stroke:#000000;stroke-width:0.28324676"
       id="path6197" />
    <path
       d=""
       style="fill:none;stroke:#000000;stroke-width:0.28324676"
       id="path6207" />
    <path
       d=""
       style="fill:none;stroke:#000000;stroke-width:0.28324676"
       id="path6215" />
    <path
       d=""
       style="fill:none;stroke:#000000;stroke-width:0.28324676"
       id="path6223" />
    <path
       d=""
       style="fill:none;stroke:#000000;stroke-width:0.28324676"
       id="path6233" />
    <path
       d=""
       style="fill:none;stroke:#000000;stroke-width:0.28324676"
       id="path6245" />
    <path
       d=""
       style="fill:none;stroke:#000000;stroke-width:0.28324676"
       id="path6251" />
    <path
       d=""
       style="fill:none;stroke:#000000;stroke-width:0.28324676"
       id="path6261" />
    <path
       d=""
       style="fill:none;stroke:#000000;stroke-width:0.28324676"
       id="path6267" />
    <path
       d=""
       style="fill:none;stroke:#000000;stroke-width:0.28324676"
       id="path6279" />
    <path
       d=""
       style="fill:none;stroke:#000000;stroke-width:0.27205426"
       id="path7484" />
    <path
       d=""
       style="fill:none;stroke:#000000;stroke-width:0.27205426"
       id="path7492" />
    <path
       d=""
       style="fill:none;stroke:#000000;stroke-width:0.27205426"
       id="path7502" />
    <path
       d=""
       style="fill:none;stroke:#000000;stroke-width:0.27205426"
       id="path7518" />
    <path
       d=""
       style="fill:none;stroke:#000000;stroke-width:0.27205426"
       id="path7524" />
    <path
       d=""
       style="fill:none;stroke:#000000;stroke-width:0.27205426"
       id="path7534" />
    <path
       d=""
       style="fill:none;stroke:#000000;stroke-width:0.27205426"
       id="path7542" />
    <path
       d=""
       style="fill:none;stroke:#000000;stroke-width:0.27205426"
       id="path7548" />
    <path
       d=""
       style="fill:none;stroke:#000000;stroke-width:0.27205426"
       id="path7558" />
    <path
       d=""
       style="fill:none;stroke:#000000;stroke-width:0.27205426"
       id="path7568" />
    <path
       d=""
       style="fill:none;stroke:#000000;stroke-width:0.27205426"
       id="path7584" />
    <path
       d=""
       style="fill:none;stroke:#000000;stroke-width:0.27205426"
       id="path7594" />
    <path
       d=""
       style="fill:none;stroke:#000000;stroke-width:0.27205426"
       id="path7600" />
    <path
       d=""
       style="fill:none;stroke:#000000;stroke-width:0.27205426"
       id="path7604" />
    <path
       d=""
       style="fill:none;stroke:#000000;stroke-width:0.27205426"
       id="path7616" />
    <path
       d=""
       style="fill:none;stroke:#000000;stroke-width:0.27205426"
       id="path7628" />
    <path
       d=""
       style="fill:none;stroke:#000000;stroke-width:0.27205426"
       id="path7634" />
    <path
       d=""
       style="fill:none;stroke:#000000;stroke-width:0.27205426"
       id="path7646" />
    <path
       d=""
       style="fill:none;stroke:#000000;stroke-width:0.27205426"
       id="path7656" />
    <path
       d=""
       style="fill:none;stroke:#000000;stroke-width:0.27205426"
       id="path7666" />
    <path
       d=""
       style="fill:none;stroke:#000000;stroke-width:0.27205426"
       id="path7684" />
    <path
       d=""
       style="fill:none;stroke:#000000;stroke-width:0.27205426"
       id="path7696" />
    <path
       id="path9408"
       style="fill:none;stroke:#000000;stroke-width:0.28768027"
       d="" />
    <path
       id="path9420"
       style="fill:none;stroke:#000000;stroke-width:0.28768027"
       d="" />
    <path
       d=""
       style="fill:none;stroke:#000000;stroke-width:0.2875405"
       id="path11653" />
    <path
       d=""
       style="fill:none;stroke:#000000;stroke-width:0.2875405"
       id="path11661" />
    <path
       d=""
       style="fill:none;stroke:#000000;stroke-width:0.2875405"
       id="path11673" />
    <path
       d=""
       style="fill:none;stroke:#000000;stroke-width:0.2875405"
       id="path11681" />
    <path
       d=""
       style="fill:none;stroke:#000000;stroke-width:0.2875405"
       id="path11693" />
    <path
       d=""
       style="fill:none;stroke:#000000;stroke-width:0.2875405"
       id="path11701" />
    <path
       d=""
       style="fill:none;stroke:#000000;stroke-width:0.2875405"
       id="path11709" />
    <path
       d=""
       style="fill:none;stroke:#000000;stroke-width:0.2875405"
       id="path11719" />
    <path
       d=""
       style="fill:none;stroke:#000000;stroke-width:0.2875405"
       id="path11731" />
    <path
       d=""
       style="fill:none;stroke:#000000;stroke-width:0.2875405"
       id="path11749" />
    <path
       d=""
       style="fill:none;stroke:#000000;stroke-width:0.2875405"
       id="path11767" />
    <path
       d=""
       style="fill:none;stroke:#000000;stroke-width:0.2875405"
       id="path11775" />
    <path
       d=""
       style="fill:none;stroke:#000000;stroke-width:0.2875405"
       id="path11781" />
    <path
       d=""
       style="fill:none;stroke:#000000;stroke-width:0.2875405"
       id="path11791" />
    <path
       id="path7242"
       style="fill:none;stroke:#000000;stroke-width:0.30547974"
       d="" />
    <path
       id="path7250"
       style="fill:none;stroke:#000000;stroke-width:0.30547974"
       d="" />
    <path
       id="path7258"
       style="fill:none;stroke:#000000;stroke-width:0.30547974"
       d="" />
    <path
       id="path7268"
       style="fill:none;stroke:#000000;stroke-width:0.30547974"
       d="" />
    <g
       id="g4602">
      <g
         id="g8708" />
    </g>
    <path
       id="path5091"
       style="fill:none;stroke:#000000"
       d="" />
    <path
       d=""
       style="fill:none;stroke:#000000;stroke-width:0.25981468"
       id="path9540" />
    <path
       d=""
       style="fill:none;stroke:#000000;stroke-width:0.25981468"
       id="path9544" />
    <path
       d=""
       style="fill:none;stroke:#000000;stroke-width:0.25981468"
       id="path9570" />
    <path
       d=""
       style="fill:none;stroke:#000000;stroke-width:0.25981468"
       id="path9592" />
    <path
       d=""
       style="fill:none;stroke:#000000;stroke-width:0.25981468"
       id="path9608" />
    <path
       d=""
       style="fill:none;stroke:#000000;stroke-width:0.25981468"
       id="path9622" />
    <path
       d=""
       style="fill:none;stroke:#000000;stroke-width:0.25981468"
       id="path9638" />
    <path
       d=""
       style="fill:none;stroke:#000000;stroke-width:0.25981468"
       id="path9660" />
    <path
       d=""
       style="fill:none;stroke:#000000;stroke-width:0.25981468"
       id="path9674" />
  </g>
  <g
     style="opacity:1"
     transform="translate(0,3.9370078e-6)"
     id="layer6">
    <g
       style="stroke-width:2.10832882;stroke-miterlimit:4;stroke-dasharray:none"
       transform="matrix(-1.0024215,0,0,0.99857358,352.86621,18.696793)"
       id="g6693">
      <g
         style="stroke-width:2.10832882;stroke-miterlimit:4;stroke-dasharray:none"
         id="g8717">
        <path
           id="path4210"
           d="m 320.02942,-7.4733721 7.55042,-0.0145 c 0,0 12.71348,1.3986 12.71348,17.8153701 l 0,3.32763 c 0,2.1749 -2.25036,1.8809 -2.25036,1.8809 l -17.29375,-0.22144 c -1.54378,0 -3.55365,-1.51867 -3.55365,-3.48654 l 0.11736,-16.9648301 c 0,0 0.25894,-2.33181 2.7165,-2.33654 z"
           style="opacity:1;fill:none;fill-rule:evenodd;stroke:#000000;stroke-width:2.10832882;stroke-linecap:butt;stroke-linejoin:miter;stroke-miterlimit:4;stroke-dasharray:none;stroke-opacity:1" />
        <path
           id="rect4181-3"
           d="m 127.68385,-17.660972 201.22752,0 c 12.21472,0 22.04824,9.8714099 22.04824,22.1331599 l 0,179.5647821 c 0,7.87793 -8.20837,6.78527 -8.20837,6.78527 l -20.06607,-0.11425 c -12.26151,-0.0698 -11.96678,8.08683 -11.92778,20.30147 l 0.0323,10.11567 c 0,0 -0.91883,7.48301 -6.74912,7.48301 l -155.75838,0 c -2.90211,-3.0577 0.023,-18.1481 -8.9462,-19.2768 -8.75314,-0.8307 -6.44616,19.2768 -13.60404,19.2768 -16.63014,-0.252 -20.09631,-5.2143 -20.09631,-19.6394 0,-7.3951 16.48369,-7.0433 16.48369,-15.0836 0,-7.0865 -16.48369,-6.0616 -16.48369,-10.4161 l 0,-178.9968521 c 0,-12.26175 9.8335,-22.1331599 22.04822,-22.1331599 z"
           style="opacity:1;fill:none;stroke:#000000;stroke-width:2.10832882;stroke-linejoin:round;stroke-miterlimit:4;stroke-dasharray:none;stroke-opacity:1" />
      </g>
    </g>
    <g
       style="stroke-width:1.96272159;stroke-miterlimit:4;stroke-dasharray:none"
       transform="matrix(0.35892918,0,0,0.35755138,25.727896,100.98034)"
       id="g8060">
      <path
         d="m 9.558371,182.71708 0,21 m 14,-21 0,21 m -14,-11 14,0"
         style="fill:none;stroke:#000000;stroke-width:1.96272159;stroke-miterlimit:4;stroke-dasharray:none"
         id="path5079" />
      <path
         d="m 30.558371,195.71708 12,0 0,-2 -1,-2 -1,-1 -2,-1 -3,0 -2,1 -2,2 -1,3 0,2 1,3 2,2 2,1 3,0 2,-1 2,-2"
         style="fill:none;stroke:#000000;stroke-width:1.96272159;stroke-miterlimit:4;stroke-dasharray:none"
         id="path5081" />
      <path
         d="m 60.558371,189.71708 0,14 m 0,-11 -2,-2 -2,-1 -3,0 -2,1 -2,2 -1,3 0,2 1,3 2,2 2,1 3,0 2,-1 2,-2"
         style="fill:none;stroke:#000000;stroke-width:1.96272159;stroke-miterlimit:4;stroke-dasharray:none"
         id="path5083" />
      <path
         d="m 68.558371,182.71708 0,21"
         style="fill:none;stroke:#000000;stroke-width:1.96272159;stroke-miterlimit:4;stroke-dasharray:none"
         id="path5085" />
      <path
         d="m 77.558371,182.71708 0,17 1,3 2,1 2,0 m -8,-14 7,0"
         style="fill:none;stroke:#000000;stroke-width:1.96272159;stroke-miterlimit:4;stroke-dasharray:none"
         id="path5087" />
      <path
         d="m 88.558371,182.71708 0,21 m 0,-10 3,-3 2,-1 3,0 2,1 1,3 0,10"
         style="fill:none;stroke:#000000;stroke-width:1.96272159;stroke-miterlimit:4;stroke-dasharray:none"
         id="path5089" />
    </g>
    <g
       style="stroke-width:1.96272159;stroke-miterlimit:4;stroke-dasharray:none"
       transform="matrix(0.35892918,0,0,0.35755138,-11.291526,110.27669)"
       id="g8068">
      <path
         d="m 137.55837,187.71708 -1,-2 -2,-2 -2,-1 -4,0 -2,1 -2,2 -1,2 -1,3 0,5 1,3 1,2 2,2 2,1 4,0 2,-1 2,-2 1,-2"
         style="fill:none;stroke:#000000;stroke-width:1.96272159;stroke-miterlimit:4;stroke-dasharray:none"
         id="path5093" />
      <path
         d="m 155.55837,189.71708 0,14 m 0,-11 -2,-2 -2,-1 -3,0 -2,1 -2,2 -1,3 0,2 1,3 2,2 2,1 3,0 2,-1 2,-2"
         style="fill:none;stroke:#000000;stroke-width:1.96272159;stroke-miterlimit:4;stroke-dasharray:none"
         id="path5095" />
      <path
         d="m 163.55837,189.71708 0,14 m 0,-8 1,-3 2,-2 2,-1 3,0"
         style="fill:none;stroke:#000000;stroke-width:1.96272159;stroke-miterlimit:4;stroke-dasharray:none"
         id="path5097" />
      <path
         d="m 175.55837,195.71708 12,0 0,-2 -1,-2 -1,-1 -2,-1 -3,0 -2,1 -2,2 -1,3 0,2 1,3 2,2 2,1 3,0 2,-1 2,-2"
         style="fill:none;stroke:#000000;stroke-width:1.96272159;stroke-miterlimit:4;stroke-dasharray:none"
         id="path5099" />
    </g>
    <path
       d="m 185.88994,168.10657 -0.35893,-0.71511 -0.71785,-0.71509 -0.71787,-0.35756 -1.43571,0 -0.71785,0.35756 -0.71787,0.71509 -0.35893,0.71511 -0.35892,1.07265 0,1.78777 0.35892,1.07264 0.35893,0.71512 0.71787,0.71509 0.71785,0.35755 1.43571,0 0.71787,-0.35755 0.71785,-0.71509 0.35893,-0.71512"
       style="fill:none;stroke:#000000;stroke-width:0.70312464;stroke-miterlimit:4;stroke-dasharray:none"
       id="path5307" />
    <path
       d="m 188.40245,166.31881 0,7.50858"
       style="fill:none;stroke:#000000;stroke-width:0.70312464;stroke-miterlimit:4;stroke-dasharray:none"
       id="path5309" />
    <path
       d="m 192.7096,168.82167 -0.71785,0.35755 -0.71787,0.7151 -0.35893,1.07267 0,0.71509 0.35893,1.07267 0.71787,0.71509 0.71785,0.35755 1.07679,0 0.71785,-0.35755 0.71787,-0.71509 0.35892,-1.07267 0,-0.71509 -0.35892,-1.07267 -0.71787,-0.7151 -0.71785,-0.35755 -1.07679,0"
       style="fill:none;stroke:#000000;stroke-width:0.70312464;stroke-miterlimit:4;stroke-dasharray:none"
       id="path5311" />
    <path
       d="m 198.45246,166.31881 0,6.07837 0.35893,1.07266 0.71785,0.35755 0.71786,0 m -2.87142,-5.00572 2.51249,0"
       style="fill:none;stroke:#000000;stroke-width:0.70312464;stroke-miterlimit:4;stroke-dasharray:none"
       id="path5313" />
    <path
       d="m 202.40069,166.31881 0,7.50858 m 0,-3.57552 1.07678,-1.07265 0.71786,-0.35755 1.07678,0 0.71786,0.35755 0.35893,1.07265 0,3.57552"
       style="fill:none;stroke:#000000;stroke-width:0.70312464;stroke-miterlimit:4;stroke-dasharray:none"
       id="path5315" />
    <path
       d="m 208.86141,166.31881 0.35893,0.35756 0.35892,-0.35756 -0.35892,-0.35755 -0.35893,0.35755 m 0.35893,2.50286 0,5.00572"
       style="fill:none;stroke:#000000;stroke-width:0.70312464;stroke-miterlimit:4;stroke-dasharray:none"
       id="path5317" />
    <path
       d="m 212.09178,168.82167 0,5.00572 m 0,-3.57552 1.07678,-1.07265 0.71786,-0.35755 1.07678,0 0.71786,0.35755 0.35894,1.07265 0,3.57552"
       style="fill:none;stroke:#000000;stroke-width:0.70312464;stroke-miterlimit:4;stroke-dasharray:none"
       id="path5319" />
    <path
       d="m 222.85965,168.82167 0,5.72083 -0.35894,1.07265 -0.35892,0.35754 -0.71786,0.35756 -1.07679,0 -0.71785,-0.35756 m 3.23036,-6.07837 -0.71786,-0.7151 -0.71786,-0.35755 -1.07679,0 -0.71785,0.35755 -0.71786,0.7151 -0.35894,1.07267 0,0.71509 0.35894,1.07267 0.71786,0.71509 0.71785,0.35755 1.07679,0 0.71786,-0.35755 0.71786,-0.71509"
       style="fill:none;stroke:#000000;stroke-width:0.70312464;stroke-miterlimit:4;stroke-dasharray:none"
       id="path5321" />
    <g
       style="stroke-width:1.96272159;stroke-miterlimit:4;stroke-dasharray:none"
       id="g5799"
       transform="matrix(0.35892918,0,0,0.35755138,129.7613,170.6431)">
      <path
         id="path5801"
         transform="translate(10,0)"
         style="fill:none;stroke:#000000;stroke-width:1.96272159;stroke-miterlimit:4;stroke-dasharray:none"
         d="m 7,-9 -2,-2 -3,-1 -4,0 -3,1 -2,2 0,2 1,2 1,1 2,1 6,2 L 5,0 6,1 7,3 7,6 5,8 2,9 -2,9 -5,8 -7,6" />
      <path
         id="path5803"
         transform="translate(29,0)"
         style="fill:none;stroke:#000000;stroke-width:1.96272159;stroke-miterlimit:4;stroke-dasharray:none"
         d="m -5,-12 0,21 m 0,-10 3,-3 2,-1 3,0 2,1 1,3 0,10" />
      <path
         id="path5805"
         transform="translate(48,0)"
         style="fill:none;stroke:#000000;stroke-width:1.96272159;stroke-miterlimit:4;stroke-dasharray:none"
         d="M -6,1 6,1 6,-1 5,-3 4,-4 2,-5 l -3,0 -2,1 -2,2 -1,3 0,2 1,3 2,2 2,1 3,0 2,-1 2,-2" />
      <path
         id="path5807"
         transform="translate(61,0)"
         style="fill:none;stroke:#000000;stroke-width:1.96272159;stroke-miterlimit:4;stroke-dasharray:none"
         d="M 0,-12 0,9" />
      <path
         id="path5809"
         transform="translate(70,0)"
         style="fill:none;stroke:#000000;stroke-width:1.96272159;stroke-miterlimit:4;stroke-dasharray:none"
         d="M 0,-12 0,5 1,8 3,9 5,9 m -8,-14 7,0" />
      <path
         id="path5811"
         transform="translate(86,0)"
         style="fill:none;stroke:#000000;stroke-width:1.96272159;stroke-miterlimit:4;stroke-dasharray:none"
         d="M -6,1 6,1 6,-1 5,-3 4,-4 2,-5 l -3,0 -2,1 -2,2 -1,3 0,2 1,3 2,2 2,1 3,0 2,-1 2,-2" />
      <path
         id="path5813"
         transform="translate(102,0)"
         style="fill:none;stroke:#000000;stroke-width:1.96272159;stroke-miterlimit:4;stroke-dasharray:none"
         d="m -3,-5 0,14 m 0,-8 1,-3 2,-2 2,-1 3,0" />
    </g>
    <path
       id="path6071"
       style="fill:none;stroke:#000000;stroke-width:0.70312464;stroke-miterlimit:4;stroke-dasharray:none"
       d="m 84.249575,166.3401 0,7.50857 m 0,-7.50857 4.666084,0 m -4.666084,3.5755 2.871434,0" />
    <path
       id="path6073"
       style="fill:none;stroke:#000000;stroke-width:0.70312464;stroke-miterlimit:4;stroke-dasharray:none"
       d="m 92.146017,168.84295 -0.717858,0.35756 -0.717859,0.71509 -0.358924,1.07267 0,0.71509 0.358924,1.07267 0.717859,0.71509 0.717858,0.35755 1.076793,0 0.717858,-0.35755 0.717858,-0.71509 0.358924,-1.07267 0,-0.71509 -0.358924,-1.07267 -0.717858,-0.71509 -0.717858,-0.35756 -1.076793,0" />
    <path
       id="path6075"
       style="fill:none;stroke:#000000;stroke-width:0.70312464;stroke-miterlimit:4;stroke-dasharray:none"
       d="m 98.965676,168.84295 -0.717858,0.35756 -0.717858,0.71509 -0.358934,1.07267 0,0.71509 0.358934,1.07267 0.717858,0.71509 0.717858,0.35755 1.076784,0 0.71786,-0.35755 0.71786,-0.71509 0.35892,-1.07267 0,-0.71509 -0.35892,-1.07267 -0.71786,-0.71509 -0.71786,-0.35756 -1.076784,0" />
    <path
       id="path6077"
       style="fill:none;stroke:#000000;stroke-width:0.70312464;stroke-miterlimit:4;stroke-dasharray:none"
       d="m 108.29783,166.3401 0,7.50857 m 0,-3.93307 -0.71786,-0.71509 -0.71786,-0.35756 -1.07678,0 -0.71786,0.35756 -0.71786,0.71509 -0.35893,1.07267 0,0.71509 0.35893,1.07267 0.71786,0.71509 0.71786,0.35755 1.07678,0 0.71786,-0.35755 0.71786,-0.71509" />
    <g
       transform="matrix(1.0024215,0,0,0.99857358,0.17338619,-9.8046581)"
       style="stroke-width:0.70277625;stroke-miterlimit:4;stroke-dasharray:none"
       id="g7589">
      <g
         style="stroke-width:0.81243807;stroke-miterlimit:4;stroke-dasharray:none"
         transform="matrix(0.86502128,0,0,0.86502128,128.50639,42.981572)"
         id="g4889">
        <path
           d="m -6,-7 0,-1 1,-2 1,-1 2,-1 4,0 2,1 1,1 1,2 0,2 L 5,-4 3,-1 -7,9 7,9"
           style="fill:none;stroke:#000000;stroke-width:0.81243807;stroke-miterlimit:4;stroke-dasharray:none"
           transform="translate(10,0)"
           id="path4891" />
        <path
           d="m -4,-8 2,-1 3,-3 0,21"
           style="fill:none;stroke:#000000;stroke-width:0.81243807;stroke-miterlimit:4;stroke-dasharray:none"
           transform="translate(30,0)"
           id="path4893" />
        <path
           d="m -4,-8 2,-1 3,-3 0,21"
           style="fill:none;stroke:#000000;stroke-width:0.81243807;stroke-miterlimit:4;stroke-dasharray:none"
           transform="translate(50,0)"
           id="path4895" />
      </g>
      <g
         style="stroke-width:0.70277625;stroke-miterlimit:4;stroke-dasharray:none"
         transform="translate(2,-2)"
         id="g7568">
        <g
           style="stroke-width:1.08163536;stroke-miterlimit:4;stroke-dasharray:none"
           id="g4707"
           transform="matrix(0.64973487,0,0,0.64973487,54.719773,45.280639)">
          <path
             id="path4709"
             transform="translate(10,0)"
             style="fill:none;stroke:#000000;stroke-width:1.08163536;stroke-miterlimit:4;stroke-dasharray:none"
             d="m 8,-7 -1,-2 -2,-2 -2,-1 -4,0 -2,1 -2,2 -1,2 -1,3 0,5 1,3 1,2 2,2 2,1 L 3,9 5,8 7,6 8,4" />
          <path
             id="path4711"
             transform="translate(30,0)"
             style="fill:none;stroke:#000000;stroke-width:1.08163536;stroke-miterlimit:4;stroke-dasharray:none"
             d="M 0,-12 -8,9 M 0,-12 8,9 M -5,2 5,2" />
          <path
             id="path4713"
             transform="translate(49,0)"
             style="fill:none;stroke:#000000;stroke-width:1.08163536;stroke-miterlimit:4;stroke-dasharray:none"
             d="M -6,-12 -6,9 M -6,9 6,9" />
          <path
             id="path4715"
             transform="translate(66,0)"
             style="fill:none;stroke:#000000;stroke-width:1.08163536;stroke-miterlimit:4;stroke-dasharray:none"
             d="M -6,-12 -6,9 M -6,9 6,9" />
        </g>
        <ellipse
           ry="23.047382"
           rx="39.293049"
           cy="43.548077"
           cx="150.11665"
           id="path7554"
           style="opacity:1;fill:none;fill-opacity:1;stroke:#000000;stroke-width:0.70277625;stroke-linejoin:round;stroke-miterlimit:4;stroke-dasharray:none;stroke-opacity:1" />
      </g>
    </g>
    <g
       style="stroke-width:1.58785069;stroke-miterlimit:4;stroke-dasharray:none"
       transform="matrix(0.44366768,0,0,0.44196463,166.91354,93.422238)"
       id="g6683">
      <path
         d="m -6,-7 0,-1 1,-2 1,-1 2,-1 4,0 2,1 1,1 1,2 0,2 L 5,-4 3,-1 -7,9 7,9"
         style="fill:none;stroke:#000000;stroke-width:1.58785069;stroke-miterlimit:4;stroke-dasharray:none"
         transform="translate(10,0)"
         id="path6685" />
      <path
         d="M 3,-12 -7,2 8,2 M 3,-12 3,9"
         style="fill:none;stroke:#000000;stroke-width:1.58785069;stroke-miterlimit:4;stroke-dasharray:none"
         transform="translate(30,0)"
         id="path6687" />
      <path
         d=""
         style="fill:none;stroke:#000000;stroke-width:1.58785069;stroke-miterlimit:4;stroke-dasharray:none"
         transform="translate(48,0)"
         id="path6689" />
      <path
         d="M -7,-12 -7,9 M 7,-12 7,9 M -7,-2 7,-2"
         style="fill:none;stroke:#000000;stroke-width:1.58785069;stroke-miterlimit:4;stroke-dasharray:none"
         transform="translate(67,0)"
         id="path6691" />
      <path
         d="m -7,-12 0,21 m 0,-21 9,0 3,1 1,1 1,2 0,2 -1,2 -1,1 -3,1 -9,0 m 7,0 7,11"
         style="fill:none;stroke:#000000;stroke-width:1.58785069;stroke-miterlimit:4;stroke-dasharray:none"
         transform="translate(89,0)"
         id="path6693" />
      <path
         d="m 7,-9 -2,-2 -3,-1 -4,0 -3,1 -2,2 0,2 1,2 1,1 2,1 6,2 L 5,0 6,1 7,3 7,6 5,8 2,9 -2,9 -5,8 -7,6"
         style="fill:none;stroke:#000000;stroke-width:1.58785069;stroke-miterlimit:4;stroke-dasharray:none"
         transform="translate(109,0)"
         id="path6695" />
    </g>
    <g
       style="stroke-width:1.58785069;stroke-miterlimit:4;stroke-dasharray:none"
       transform="matrix(0.44366768,0,0,0.44196463,22.774564,93.194013)"
       id="g7349">
      <path
         d="m 8,-7 -1,-2 -2,-2 -2,-1 -4,0 -2,1 -2,2 -1,2 -1,3 0,5 1,3 1,2 2,2 2,1 L 3,9 5,8 7,6 8,4"
         style="fill:none;stroke:#000000;stroke-width:1.58785069;stroke-miterlimit:4;stroke-dasharray:none"
         transform="translate(10,0)"
         id="path7351" />
      <path
         d="m -1,-5 -2,1 -2,2 -1,3 0,2 1,3 2,2 2,1 L 2,9 4,8 6,6 7,3 7,1 6,-2 4,-4 2,-5 -1,-5"
         style="fill:none;stroke:#000000;stroke-width:1.58785069;stroke-miterlimit:4;stroke-dasharray:none"
         transform="translate(30,0)"
         id="path7353" />
      <path
         d="m -5,-5 0,14 m 0,-10 3,-3 2,-1 3,0 2,1 1,3 0,10"
         style="fill:none;stroke:#000000;stroke-width:1.58785069;stroke-miterlimit:4;stroke-dasharray:none"
         transform="translate(49,0)"
         id="path7355" />
      <path
         d="m 5,-12 -2,0 -2,1 -1,3 0,17 m -3,-14 7,0"
         style="fill:none;stroke:#000000;stroke-width:1.58785069;stroke-miterlimit:4;stroke-dasharray:none"
         transform="translate(64,0)"
         id="path7357" />
      <path
         d="m -1,-12 1,1 1,-1 -1,-1 -1,1 m 1,7 0,14"
         style="fill:none;stroke:#000000;stroke-width:1.58785069;stroke-miterlimit:4;stroke-dasharray:none"
         transform="translate(75,0)"
         id="path7359" />
      <path
         d="M 6,-12 6,9 M 6,-2 4,-4 2,-5 l -3,0 -2,1 -2,2 -1,3 0,2 1,3 2,2 2,1 3,0 2,-1 2,-2"
         style="fill:none;stroke:#000000;stroke-width:1.58785069;stroke-miterlimit:4;stroke-dasharray:none"
         transform="translate(88,0)"
         id="path7361" />
      <path
         d="M -6,1 6,1 6,-1 5,-3 4,-4 2,-5 l -3,0 -2,1 -2,2 -1,3 0,2 1,3 2,2 2,1 3,0 2,-1 2,-2"
         style="fill:none;stroke:#000000;stroke-width:1.58785069;stroke-miterlimit:4;stroke-dasharray:none"
         transform="translate(107,0)"
         id="path7363" />
      <path
         d="m -5,-5 0,14 m 0,-10 3,-3 2,-1 3,0 2,1 1,3 0,10"
         style="fill:none;stroke:#000000;stroke-width:1.58785069;stroke-miterlimit:4;stroke-dasharray:none"
         transform="translate(125,0)"
         id="path7365" />
      <path
         d="M 0,-12 0,5 1,8 3,9 5,9 m -8,-14 7,0"
         style="fill:none;stroke:#000000;stroke-width:1.58785069;stroke-miterlimit:4;stroke-dasharray:none"
         transform="translate(140,0)"
         id="path7367" />
      <path
         d="m -1,-12 1,1 1,-1 -1,-1 -1,1 m 1,7 0,14"
         style="fill:none;stroke:#000000;stroke-width:1.58785069;stroke-miterlimit:4;stroke-dasharray:none"
         transform="translate(151,0)"
         id="path7369" />
      <path
         d="M 6,-5 6,9 M 6,-2 4,-4 2,-5 l -3,0 -2,1 -2,2 -1,3 0,2 1,3 2,2 2,1 3,0 2,-1 2,-2"
         style="fill:none;stroke:#000000;stroke-width:1.58785069;stroke-miterlimit:4;stroke-dasharray:none"
         transform="translate(164,0)"
         id="path7371" />
      <path
         d="M 0,-12 0,9"
         style="fill:none;stroke:#000000;stroke-width:1.58785069;stroke-miterlimit:4;stroke-dasharray:none"
         transform="translate(178,0)"
         id="path7373" />
    </g>
    <path
       id="path7602"
       d="m 112.21064,105.05464 0,-21.85099"
       style="fill:none;fill-rule:evenodd;stroke:#000000;stroke-width:0.70312464;stroke-linecap:butt;stroke-linejoin:miter;stroke-miterlimit:4;stroke-dasharray:none;stroke-opacity:1" />
    <path
       style="fill:none;fill-rule:evenodd;stroke:#000000;stroke-width:0.70312464;stroke-linecap:butt;stroke-linejoin:miter;stroke-miterlimit:4;stroke-dasharray:none;stroke-opacity:1"
       d="m 159.54538,105.05464 0,-21.85099"
       id="path7605" />
    <g
       style="stroke-width:0.40806285;stroke-miterlimit:4;stroke-dasharray:none"
       id="g11414"
       transform="matrix(1.7263958,0,0,1.7197689,-105.88912,-243.11008)">
      <path
         d="m 134.26332,191.17469 0,4.35388 m -1.45129,-4.35388 2.90258,0"
         style="fill:none;stroke:#000000;stroke-width:0.40806285;stroke-miterlimit:4;stroke-dasharray:none"
         id="path11416" />
      <path
         d="m 137.78789,191.17469 -0.41466,0.20733 -0.41465,0.41465 -0.20733,0.41466 -0.20733,0.62198 0,1.03664 0.20733,0.62198 0.20733,0.41465 0.41465,0.41466 0.41466,0.20733 0.8293,0 0.41466,-0.20733 0.41465,-0.41466 0.20733,-0.41465 0.20733,-0.62198 0,-1.03664 -0.20733,-0.62198 -0.20733,-0.41466 -0.41465,-0.41465 -0.41466,-0.20733 -0.8293,0"
         style="fill:none;stroke:#000000;stroke-width:0.40806285;stroke-miterlimit:4;stroke-dasharray:none"
         id="path11418" />
      <path
         d="m 141.31245,191.17469 0,4.35388 m 0,0 2.48792,0"
         style="fill:none;stroke:#000000;stroke-width:0.40806285;stroke-miterlimit:4;stroke-dasharray:none"
         id="path11420" />
      <path
         d="m 144.83701,191.17469 0,4.35388 m 0,0 2.48792,0"
         style="fill:none;stroke:#000000;stroke-width:0.40806285;stroke-miterlimit:4;stroke-dasharray:none"
         id="path11422" />
    </g>
    <g
       style="stroke-width:0.40806285;stroke-miterlimit:4;stroke-dasharray:none"
       id="g11424"
       transform="matrix(1.7263958,0,0,1.7197689,-138.33759,-232.79146)">
      <path
         d="m 151.67881,191.17469 0,4.35388 m 0,-4.35388 2.69525,0 m -2.69525,2.07328 1.65861,0"
         style="fill:none;stroke:#000000;stroke-width:0.40806285;stroke-miterlimit:4;stroke-dasharray:none"
         id="path11426" />
      <path
         d="m 155.4107,191.17469 0,4.35388 m 0,-4.35388 1.86594,0 0.62199,0.20733 0.20732,0.20733 0.20733,0.41465 0,0.41466 -0.20733,0.41465 -0.20732,0.20733 -0.62199,0.20733 -1.86594,0 m 1.45129,0 1.45129,2.2806"
         style="fill:none;stroke:#000000;stroke-width:0.40806285;stroke-miterlimit:4;stroke-dasharray:none"
         id="path11428" />
      <path
         d="m 159.76457,191.17469 0,4.35388 m 0,-4.35388 2.69525,0 m -2.69525,2.07328 1.65861,0 m -1.65861,2.2806 2.69525,0"
         style="fill:none;stroke:#000000;stroke-width:0.40806285;stroke-miterlimit:4;stroke-dasharray:none"
         id="path11430" />
      <path
         d="m 163.70379,191.17469 0,4.35388 m 0,-4.35388 2.69525,0 m -2.69525,2.07328 1.65861,0 m -1.65861,2.2806 2.69525,0"
         style="fill:none;stroke:#000000;stroke-width:0.40806285;stroke-miterlimit:4;stroke-dasharray:none"
         id="path11432" />
    </g>
    <path
       d="m 34.845426,65.233998 -0.816795,0 -0.816793,0.40683 -0.408397,1.220487 0,6.916095 m -1.22519,-5.695607 2.858778,0"
       style="fill:none;stroke:#000000;stroke-width:0.70312464;stroke-miterlimit:4;stroke-dasharray:none"
       id="path8347" />
    <path
       d="m 38.929393,68.081803 -0.816793,0.406829 -0.816794,0.813658 -0.408396,1.220488 0,0.813658 0.408396,1.220488 0.816794,0.813658 0.816793,0.406828 1.225191,0 0.816794,-0.406828 0.816794,-0.813658 0.408396,-1.220488 0,-0.813658 -0.408396,-1.220488 -0.816794,-0.813658 -0.816794,-0.406829 -1.225191,0"
       style="fill:none;stroke:#000000;stroke-width:0.70312464;stroke-miterlimit:4;stroke-dasharray:none"
       id="path8349" />
    <path
       d="m 45.055346,68.081803 0,5.695607 m 0,-3.254632 0.408397,-1.220488 0.816794,-0.813658 0.816793,-0.406829 1.225191,0"
       style="fill:none;stroke:#000000;stroke-width:0.70312464;stroke-miterlimit:4;stroke-dasharray:none"
       id="path8351" />
    <path
       d=""
       style="fill:none;stroke:#000000;stroke-width:0.70312464;stroke-miterlimit:4;stroke-dasharray:none"
       id="path8353" />
    <path
       d="m 56.490458,65.233998 0.408397,0.40683 0.408397,-0.40683 -0.408397,-0.406829 -0.408397,0.406829 m 0.408397,2.847805 0,5.695607"
       style="fill:none;stroke:#000000;stroke-width:0.70312464;stroke-miterlimit:4;stroke-dasharray:none"
       id="path8355" />
    <path
       d="m 60.16603,68.081803 0,5.695607 m 0,-4.06829 1.225191,-1.220488 0.816794,-0.406829 1.22519,0 0.816794,0.406829 0.408397,1.220488 0,4.06829"
       style="fill:none;stroke:#000000;stroke-width:0.70312464;stroke-miterlimit:4;stroke-dasharray:none"
       id="path8357" />
    <path
       d="m 70.37595,65.233998 -0.816789,0 -0.8168,0.40683 -0.408394,1.220487 0,6.916095 m -1.22519,-5.695607 2.858779,0"
       style="fill:none;stroke:#000000;stroke-width:0.70312464;stroke-miterlimit:4;stroke-dasharray:none"
       id="path8359" />
    <path
       d="m 74.459918,68.081803 -0.81679,0.406829 -0.816799,0.813658 -0.408395,1.220488 0,0.813658 0.408395,1.220488 0.816799,0.813658 0.81679,0.406828 1.225194,0 0.816789,-0.406828 0.8168,-0.813658 0.408395,-1.220488 0,-0.813658 -0.408395,-1.220488 -0.8168,-0.813658 -0.816789,-0.406829 -1.225194,0"
       style="fill:none;stroke:#000000;stroke-width:0.70312464;stroke-miterlimit:4;stroke-dasharray:none"
       id="path8361" />
    <path
       d=""
       style="fill:none;stroke:#000000;stroke-width:0.70312464;stroke-miterlimit:4;stroke-dasharray:none"
       id="path8363" />
    <path
       d="m 91.612587,68.081803 0,5.695607 m 0,-4.47512 -0.81679,-0.813658 -0.816799,-0.406829 -1.225184,0 -0.8168,0.406829 -0.816789,0.813658 -0.408395,1.220488 0,0.813658 0.408395,1.220488 0.816789,0.813658 0.8168,0.406828 1.225184,0 0.816799,-0.406828 0.81679,-0.813658"
       style="fill:none;stroke:#000000;stroke-width:0.70312464;stroke-miterlimit:4;stroke-dasharray:none"
       id="path8365" />
    <path
       d="m 94.879765,68.081803 0,5.695607 m 0,-4.06829 1.225194,-1.220488 0.816789,-0.406829 1.225195,0 0.816789,0.406829 0.408397,1.220488 0,4.06829"
       style="fill:none;stroke:#000000;stroke-width:0.70312464;stroke-miterlimit:4;stroke-dasharray:none"
       id="path8367" />
    <path
       d="m 107.13167,65.233998 0,8.543412 m 0,-4.47512 -0.8168,-0.813658 -0.81679,-0.406829 -1.22518,0 -0.8168,0.406829 -0.81679,0.813658 -0.4084,1.220488 0,0.813658 0.4084,1.220488 0.81679,0.813658 0.8168,0.406828 1.22518,0 0.81679,-0.406828 0.8168,-0.813658"
       style="fill:none;stroke:#000000;stroke-width:0.70312464;stroke-miterlimit:4;stroke-dasharray:none"
       id="path8369" />
    <path
       d=""
       style="fill:none;stroke:#000000;stroke-width:0.70312464;stroke-miterlimit:4;stroke-dasharray:none"
       id="path8371" />
    <path
       d="m 121.42555,68.081803 0,5.695607 m 0,-4.47512 -0.81678,-0.813658 -0.8168,-0.406829 -1.22519,0 -0.8168,0.406829 -0.81679,0.813658 -0.40839,1.220488 0,0.813658 0.40839,1.220488 0.81679,0.813658 0.8168,0.406828 1.22519,0 0.8168,-0.406828 0.81678,-0.813658"
       style="fill:none;stroke:#000000;stroke-width:0.70312464;stroke-miterlimit:4;stroke-dasharray:none"
       id="path8373" />
    <path
       d="m 129.18509,69.30229 -0.81678,-0.813658 -0.8168,-0.406829 -1.22519,0 -0.8168,0.406829 -0.81679,0.813658 -0.40839,1.220488 0,0.813658 0.40839,1.220488 0.81679,0.813658 0.8168,0.406828 1.22519,0 0.8168,-0.406828 0.81678,-0.813658"
       style="fill:none;stroke:#000000;stroke-width:0.70312464;stroke-miterlimit:4;stroke-dasharray:none"
       id="path8375" />
    <path
       d="m 136.53624,69.30229 -0.81679,-0.813658 -0.8168,-0.406829 -1.22518,0 -0.8168,0.406829 -0.81679,0.813658 -0.40839,1.220488 0,0.813658 0.40839,1.220488 0.81679,0.813658 0.8168,0.406828 1.22518,0 0.8168,-0.406828 0.81679,-0.813658"
       style="fill:none;stroke:#000000;stroke-width:0.70312464;stroke-miterlimit:4;stroke-dasharray:none"
       id="path8377" />
    <path
       d="m 138.98662,70.522778 4.90077,0 0,-0.813658 -0.4084,-0.813658 -0.4084,-0.40683 -0.8168,-0.406829 -1.22518,0 -0.8168,0.406829 -0.81678,0.813658 -0.40841,1.220488 0,0.813658 0.40841,1.220488 0.81678,0.813658 0.8168,0.406828 1.22518,0 0.8168,-0.406828 0.8168,-0.813658"
       style="fill:none;stroke:#000000;stroke-width:0.70312464;stroke-miterlimit:4;stroke-dasharray:none"
       id="path8379" />
    <path
       d="m 150.83013,69.30229 -0.40839,-0.813658 -1.22519,-0.406829 -1.22518,0 -1.22521,0.406829 -0.40839,0.813658 0.40839,0.813659 0.81681,0.406829 2.04198,0.406829 0.81679,0.406829 0.40839,0.813659 0,0.406829 -0.40839,0.813658 -1.22519,0.406828 -1.22518,0 -1.22521,-0.406828 -0.40839,-0.813658"
       style="fill:none;stroke:#000000;stroke-width:0.70312464;stroke-miterlimit:4;stroke-dasharray:none"
       id="path8381" />
    <path
       d="m 157.77288,69.30229 -0.4084,-0.813658 -1.22519,-0.406829 -1.22519,0 -1.22519,0.406829 -0.4084,0.813658 0.4084,0.813659 0.8168,0.406829 2.04198,0.406829 0.81679,0.406829 0.4084,0.813659 0,0.406829 -0.4084,0.813658 -1.22519,0.406828 -1.22519,0 -1.22519,-0.406828 -0.4084,-0.813658"
       style="fill:none;stroke:#000000;stroke-width:0.70312464;stroke-miterlimit:4;stroke-dasharray:none"
       id="path8383" />
    <path
       d=""
       style="fill:none;stroke:#000000;stroke-width:0.70312464;stroke-miterlimit:4;stroke-dasharray:none"
       id="path8385" />
    <path
       d="m 167.57441,65.233998 0,6.916097 0.40839,1.220487 0.81681,0.406828 0.81678,0 m -3.26718,-5.695607 2.85879,0"
       style="fill:none;stroke:#000000;stroke-width:0.70312464;stroke-miterlimit:4;stroke-dasharray:none"
       id="path8387" />
    <path
       d="m 173.70036,68.081803 -0.8168,0.406829 -0.81679,0.813658 -0.4084,1.220488 0,0.813658 0.4084,1.220488 0.81679,0.813658 0.8168,0.406828 1.22518,0 0.8168,-0.406828 0.8168,-0.813658 0.40839,-1.220488 0,-0.813658 -0.40839,-1.220488 -0.8168,-0.813658 -0.8168,-0.406829 -1.22518,0"
       style="fill:none;stroke:#000000;stroke-width:0.70312464;stroke-miterlimit:4;stroke-dasharray:none"
       id="path8389" />
    <path
       d=""
       style="fill:none;stroke:#000000;stroke-width:0.70312464;stroke-miterlimit:4;stroke-dasharray:none"
       id="path8391" />
    <path
       d=""
       style="fill:none;stroke:#000000;stroke-width:0.70312464;stroke-miterlimit:4;stroke-dasharray:none"
       id="path8393" />
    <path
       d="m 195.34539,65.233998 -0.81679,0 -0.8168,0.40683 -0.40839,1.220487 0,6.916095 m -1.2252,-5.695607 2.85879,0"
       style="fill:none;stroke:#000000;stroke-width:0.70312464;stroke-miterlimit:4;stroke-dasharray:none"
       id="path8395" />
    <path
       d="m 197.79577,68.081803 0,5.695607 m 0,-3.254632 0.40841,-1.220488 0.81678,-0.813658 0.81679,-0.406829 1.2252,0"
       style="fill:none;stroke:#000000;stroke-width:0.70312464;stroke-miterlimit:4;stroke-dasharray:none"
       id="path8397" />
    <path
       d="m 202.69654,70.522778 4.90075,0 0,-0.813658 -0.40839,-0.813658 -0.4084,-0.40683 -0.81679,-0.406829 -1.22519,0 -0.8168,0.406829 -0.81679,0.813658 -0.40839,1.220488 0,0.813658 0.40839,1.220488 0.81679,0.813658 0.8168,0.406828 1.22519,0 0.81679,-0.406828 0.81679,-0.813658"
       style="fill:none;stroke:#000000;stroke-width:0.70312464;stroke-miterlimit:4;stroke-dasharray:none"
       id="path8399" />
    <path
       d="m 210.04768,70.522778 4.90076,0 0,-0.813658 -0.40839,-0.813658 -0.4084,-0.40683 -0.8168,-0.406829 -1.22519,0 -0.81679,0.406829 -0.81679,0.813658 -0.4084,1.220488 0,0.813658 0.4084,1.220488 0.81679,0.813658 0.81679,0.406828 1.22519,0 0.8168,-0.406828 0.81679,-0.813658"
       style="fill:none;stroke:#000000;stroke-width:0.70312464;stroke-miterlimit:4;stroke-dasharray:none"
       id="path8401" />
    <path
       style="fill:none;fill-rule:evenodd;stroke:#000000;stroke-width:0.70312464;stroke-linecap:butt;stroke-linejoin:miter;stroke-miterlimit:4;stroke-dasharray:none;stroke-opacity:1"
       d="m 29.235078,200.43692 190.978372,0"
       id="path5101" />
    <path
       id="path10302"
       style="fill:none;stroke:#000000;stroke-width:0.70312458;stroke-miterlimit:4;stroke-dasharray:none"
       d="m 78.344733,189.48884 0,-0.34218 -0.343505,-0.34218 -0.343506,0 -0.343496,0.34218 -0.343506,0.68436 -0.687001,1.71093 -0.687011,1.02654 -0.687001,0.68438 -0.687001,0.34218 -1.374013,0 -0.687002,-0.34218 -0.343505,-0.34219 -0.343506,-0.68437 0,-0.68436 0.343506,-0.68437 0.343505,-0.34218 2.40451,-1.36874 0.343506,-0.34218 0.343505,-0.68437 0,-0.68437 -0.343505,-0.68437 -0.687001,-0.34218 -0.687011,0.34218 -0.343497,0.68437 0,0.68437 0.343497,1.02655 0.687011,1.02655 1.717508,2.39528 0.687001,0.68438 0.687011,0.34218 0.687002,0 0.343505,-0.34218 0,-0.34219" />
    <path
       id="path10304"
       style="fill:none;stroke:#000000;stroke-width:0.70312458;stroke-miterlimit:4;stroke-dasharray:none"
       d="" />
    <path
       id="path10306"
       style="fill:none;stroke:#000000;stroke-width:0.70312458;stroke-miterlimit:4;stroke-dasharray:none"
       d="m 86.245283,186.40919 0,7.18586 m 0,-7.18586 2.748015,7.18586 m 2.748015,-7.18586 -2.748015,7.18586 m 2.748015,-7.18586 0,7.18586" />
    <path
       id="path10308"
       style="fill:none;stroke:#000000;stroke-width:0.70312458;stroke-miterlimit:4;stroke-dasharray:none"
       d="m 95.863341,188.80448 -0.687001,0.34218 -0.687011,0.68436 -0.343496,1.02656 0,0.68437 0.343496,1.02654 0.687011,0.68438 0.687001,0.34218 1.030507,0 0.687002,-0.34218 0.687011,-0.68438 0.343495,-1.02654 0,-0.68437 -0.343495,-1.02656 -0.687011,-0.68436 -0.687002,-0.34218 -1.030507,0" />
    <path
       id="path10310"
       style="fill:none;stroke:#000000;stroke-width:0.70312458;stroke-miterlimit:4;stroke-dasharray:none"
       d="m 101.01588,188.80448 0,4.79057 m 0,-2.73747 0.34351,-1.02656 0.68699,-0.68436 0.687,-0.34218 1.03051,0" />
    <path
       id="path10312"
       style="fill:none;stroke:#000000;stroke-width:0.70312458;stroke-miterlimit:4;stroke-dasharray:none"
       d="m 105.1379,190.85758 4.12203,0 0,-0.68437 -0.3435,-0.68437 -0.3435,-0.34218 -0.68701,-0.34218 -1.03051,0 -0.687,0.34218 -0.687,0.68436 -0.34351,1.02656 0,0.68437 0.34351,1.02654 0.687,0.68438 0.687,0.34218 1.03051,0 0.68701,-0.34218 0.687,-0.68438" />
    <path
       id="path10314"
       style="fill:none;stroke:#000000;stroke-width:0.70312458;stroke-miterlimit:4;stroke-dasharray:none"
       d="" />
    <path
       id="path10316"
       style="fill:none;stroke:#000000;stroke-width:0.70312458;stroke-miterlimit:4;stroke-dasharray:none"
       d="m 117.16047,186.40919 0,7.18586 m 0,-7.18586 3.09152,0 1.03051,0.34218 0.34351,0.34219 0.3435,0.68436 0,0.68438 -0.3435,0.68436 -0.34351,0.34218 -1.03051,0.34218 -3.09152,0 m 2.40452,0 2.40452,3.76403" />
    <path
       id="path10318"
       style="fill:none;stroke:#000000;stroke-width:0.70312458;stroke-miterlimit:4;stroke-dasharray:none"
       d="m 124.03053,190.85758 4.12202,0 0,-0.68437 -0.3435,-0.68437 -0.34349,-0.34218 -0.68702,-0.34218 -1.0305,0 -0.687,0.34218 -0.68701,0.68436 -0.3435,1.02656 0,0.68437 0.3435,1.02654 0.68701,0.68438 0.687,0.34218 1.0305,0 0.68702,-0.34218 0.68699,-0.68438" />
    <path
       id="path10320"
       style="fill:none;stroke:#000000;stroke-width:0.70312458;stroke-miterlimit:4;stroke-dasharray:none"
       d="m 133.99209,189.83102 -0.34351,-0.68436 -1.0305,-0.34218 -1.03051,0 -1.03051,0.34218 -0.34349,0.68436 0.34349,0.68438 0.68701,0.34218 1.71751,0.34219 0.687,0.34218 0.34351,0.68436 0,0.34218 -0.34351,0.68438 -1.0305,0.34218 -1.03051,0 -1.03051,-0.34218 -0.34349,-0.68438" />
    <path
       id="path10322"
       style="fill:none;stroke:#000000;stroke-width:0.70312458;stroke-miterlimit:4;stroke-dasharray:none"
       d="m 137.77061,188.80448 -0.687,0.34218 -0.687,0.68436 -0.34351,1.02656 0,0.68437 0.34351,1.02654 0.687,0.68438 0.687,0.34218 1.03051,0 0.68701,-0.34218 0.687,-0.68438 0.34351,-1.02654 0,-0.68437 -0.34351,-1.02656 -0.687,-0.68436 -0.68701,-0.34218 -1.03051,0" />
    <path
       id="path10324"
       style="fill:none;stroke:#000000;stroke-width:0.70312458;stroke-miterlimit:4;stroke-dasharray:none"
       d="m 142.92315,188.80448 0,3.42183 0.34349,1.02656 0.68701,0.34218 1.03051,0 0.687,-0.34218 1.03051,-1.02656 m 0,-3.42183 0,4.79057" />
    <path
       id="path10326"
       style="fill:none;stroke:#000000;stroke-width:0.70312458;stroke-miterlimit:4;stroke-dasharray:none"
       d="m 153.22821,189.83102 -0.687,-0.68436 -0.687,-0.34218 -1.03052,0 -0.68699,0.34218 -0.687,0.68436 -0.34352,1.02656 0,0.68437 0.34352,1.02654 0.687,0.68438 0.68699,0.34218 1.03052,0 0.687,-0.34218 0.687,-0.68438" />
    <path
       id="path10328"
       style="fill:none;stroke:#000000;stroke-width:0.70312458;stroke-miterlimit:4;stroke-dasharray:none"
       d="m 155.28923,190.85758 4.12203,0 0,-0.68437 -0.34351,-0.68437 -0.34349,-0.34218 -0.68702,-0.34218 -1.0305,0 -0.687,0.34218 -0.68701,0.68436 -0.3435,1.02656 0,0.68437 0.3435,1.02654 0.68701,0.68438 0.687,0.34218 1.0305,0 0.68702,-0.34218 0.687,-0.68438" />
    <path
       id="path10330"
       style="fill:none;stroke:#000000;stroke-width:0.70312458;stroke-miterlimit:4;stroke-dasharray:none"
       d="m 165.2508,189.83102 -0.34351,-0.68436 -1.03051,-0.34218 -1.0305,0 -1.03052,0.34218 -0.34349,0.68436 0.34349,0.68438 0.68701,0.34218 1.71751,0.34219 0.68701,0.34218 0.34351,0.68436 0,0.34218 -0.34351,0.68438 -1.03051,0.34218 -1.0305,0 -1.03052,-0.34218 -0.34349,-0.68438" />
    <path
       id="path10332"
       style="fill:none;stroke:#000000;stroke-width:0.70312458;stroke-miterlimit:4;stroke-dasharray:none"
       d="" />
    <path
       id="path10334"
       style="fill:none;stroke:#000000;stroke-width:0.70312458;stroke-miterlimit:4;stroke-dasharray:none"
       d="m 173.15134,186.40919 0,7.18586 m 0,-7.18586 4.46553,0 m -4.46553,3.42183 2.74802,0" />
    <path
       id="path10336"
       style="fill:none;stroke:#000000;stroke-width:0.70312458;stroke-miterlimit:4;stroke-dasharray:none"
       d="m 180.70839,188.80448 -0.68701,0.34218 -0.687,0.68436 -0.3435,1.02656 0,0.68437 0.3435,1.02654 0.687,0.68438 0.68701,0.34218 1.0305,0 0.68702,-0.34218 0.687,-0.68438 0.3435,-1.02654 0,-0.68437 -0.3435,-1.02656 -0.687,-0.68436 -0.68702,-0.34218 -1.0305,0" />
    <path
       id="path10338"
       style="fill:none;stroke:#000000;stroke-width:0.70312458;stroke-miterlimit:4;stroke-dasharray:none"
       d="m 185.86093,188.80448 0,4.79057 m 0,-2.73747 0.3435,-1.02656 0.68701,-0.68436 0.687,-0.34218 1.0305,0" />
    <path
       id="path10340"
       style="fill:none;stroke:#000000;stroke-width:0.70312458;stroke-miterlimit:4;stroke-dasharray:none"
       d="m 190.32645,189.48884 -0.3435,0.34218 0.3435,0.34219 0.34351,-0.34219 -0.34351,-0.34218 m 0,2.39529 -0.3435,0.34218 0.3435,0.34218 0.34351,-0.34218 -0.34351,-0.34218" />
    <path
       id="path7939"
       d="m 135.72533,135.18085 0,17.00336 25.43265,0 0,-17.34342 4.60858,0 -17.548,-15.34889 -17.25941,15.50991 z"
       style="fill:none;fill-rule:evenodd;stroke:#000000;stroke-width:0.70312464;stroke-linecap:butt;stroke-linejoin:miter;stroke-miterlimit:4;stroke-dasharray:none;stroke-opacity:1" />
    <rect
       ry="5.6111045"
       rx="5.6327271"
       y="114.58073"
       x="126.49342"
       height="43.644176"
       width="43.812355"
       id="rect7941"
       style="opacity:1;fill:none;fill-opacity:1;stroke:#000000;stroke-width:0.70312464;stroke-linejoin:round;stroke-miterlimit:4;stroke-dasharray:none;stroke-opacity:1" />
    <g
       transform="matrix(1.0024215,0,0,0.99857358,0.17338619,-1.8160734)"
       style="stroke-width:0.70277625;stroke-miterlimit:4;stroke-dasharray:none"
       id="g8676">
      <path
         style="opacity:1;fill:none;fill-opacity:1;stroke:#000000;stroke-width:0.70277625;stroke-linejoin:round;stroke-miterlimit:4;stroke-dasharray:none;stroke-opacity:1"
         d="m 94.696846,137.41758 0.158697,0 c 0.218628,0 0.276771,0.18472 0.276771,0.18472 l 0.109468,0.27117 c 0,0 0.122247,0.20318 0.337436,0.20318 l 1.309,0 c 0.231852,0 0.335165,-0.19755 0.335165,-0.19755 l 0.116145,-0.28772 c 0,0 0.02428,-0.1738 0.240439,-0.1738 l 0.114702,0 c 0.359301,0 0.648557,0.46533 0.648557,1.04335 l 0,16.60105 c 0,0.57802 -0.289256,1.04335 -0.648557,1.04335 l -2.997825,0 c -0.359301,0 -0.648558,-0.46533 -0.648558,-1.04335 l 0,-16.60105 c 0,-0.57802 0.289257,-1.04335 0.64856,-1.04335 z"
         id="rect7993" />
      <ellipse
         style="opacity:1;fill:none;fill-opacity:1;stroke:#000000;stroke-width:0.70277625;stroke-linejoin:round;stroke-miterlimit:4;stroke-dasharray:none;stroke-opacity:1"
         id="path7996"
         cx="96.131119"
         cy="130.24644"
         rx="4.4398599"
         ry="6.3980393" />
      <path
         style="fill:none;fill-rule:evenodd;stroke:#000000;stroke-width:0.70277625;stroke-linecap:butt;stroke-linejoin:miter;stroke-miterlimit:4;stroke-dasharray:none;stroke-opacity:1"
         d="m 109.43972,121.91173 0,33.02443 c 0,0 0.075,0.86986 -0.86985,0.86986 l -2.28081,0 c 0,0 -1.05446,0.0391 -1.05446,-1.05447 l 0,-16.19509 c 0,0 -1.76392,-1.55944 -1.76392,-6.58302 0,-5.02357 2.21141,-8.29395 3.18369,-9.17783 0.78719,-0.71563 1.3441,-1.42163 2.1603,-1.66448 0.54841,0 0.62505,0.01 0.62505,0.7806 z"
         id="path8002" />
      <path
         style="fill:none;fill-rule:evenodd;stroke:#000000;stroke-width:0.70277625;stroke-linecap:butt;stroke-linejoin:miter;stroke-miterlimit:4;stroke-dasharray:none;stroke-opacity:1"
         d="m 85.58355,156.38319 -1.954347,0 c 0,0 -1.149049,-0.35356 -1.149049,-2.47488 l 0,-16.41174 c 0,-1.47361 -1.856155,-1.15476 -1.856155,-2.29365 0,-2.03294 -0.08839,-9.13694 -0.08839,-9.13694 0,0 -0.01044,-1.19231 -0.01044,-2.00355 0,-0.60659 0.578801,-0.52791 0.998958,-0.52791 0.953428,0 0.78837,0.3735 0.78837,1.2485 0,0.875 0.07813,5.83594 0.07813,6.30469 0,0.46901 0.20277,0.79687 0.546875,0.79687 0.265165,0 0.59375,0.0469 0.59375,-0.76562 l 0,-7.05469 c 0,-0.19009 0.03057,-0.65625 0.75,-0.65625 0.84375,0 0.90625,0.1875 0.90625,0.6875 0,1.15625 0.203125,6.83635 0.203125,7.13282 0,0.48663 0.234375,0.64062 0.546875,0.65625 0.1875,-0.0312 0.5,-0.17188 0.5,-0.64063 0,-0.46875 -0.125,-6.59375 -0.125,-6.90625 0,-0.875 0.03125,-1 0.78125,-1 0.8125,0 0.90625,0.0919 0.90625,1.15625 0,0.78375 0.21875,7.46875 0.03125,10.9375 -0.06578,1.21697 -1.515362,0.43762 -1.5,1.8125 l 0.1875,16.78125 c 0,0 0.26085,2.35798 -1.135202,2.35798 z"
         id="path8004" />
    </g>
    <rect
       style="opacity:1;fill:none;fill-opacity:1;stroke:#000000;stroke-width:0.70312464;stroke-linejoin:round;stroke-miterlimit:4;stroke-dasharray:none;stroke-opacity:1"
       id="rect8682"
       width="43.812355"
       height="43.644176"
       x="74.367508"
       y="114.58073"
       rx="5.6327271"
       ry="5.6111045" />
    <path
       id="path7834"
       d="m 27.213703,141.25579 c 0.48278,0.24047 11.828129,0 11.828129,0 l 0,11.78274 9.172836,0 0,-11.78274 12.672996,0 0,-9.01738 -12.310911,0 0,-12.26365 -9.655615,0 0,11.78272 -11.828131,0 z"
       style="fill:none;fill-rule:evenodd;stroke:#000000;stroke-width:0.70312464;stroke-linecap:butt;stroke-linejoin:miter;stroke-miterlimit:4;stroke-dasharray:none;stroke-opacity:1" />
    <rect
       ry="5.6111045"
       rx="5.6327271"
       y="114.58073"
       x="22.241587"
       height="43.644176"
       width="43.812355"
       id="rect8684"
       style="opacity:1;fill:none;fill-opacity:1;stroke:#000000;stroke-width:0.70312464;stroke-linejoin:round;stroke-miterlimit:4;stroke-dasharray:none;stroke-opacity:1" />
    <path
       id="path7704"
       d="m 191.53924,151.48889 17.27179,0 c 0,0 1.30704,0.20372 1.30704,-2.14478 l 0,-11.40777 c 0,-0.81868 0.0708,-1.36745 1.4913,-1.36745 l 3.075,0 c 0,0 1.02837,0.0116 1.45794,-0.72968 l 2.92993,-5.05531 c 0,0 0.18262,-0.5715 -0.37807,-0.89398 l -7.84991,-4.51474 c 0,0 -0.83725,-0.36757 -1.409,-0.36757 l -3.50066,0 c -0.47025,0 -0.61437,0.37892 -0.61437,0.37892 -0.51405,1.06481 -2.18556,4.00677 -4.96255,4.00677 -2.77578,0 -4.29927,-2.97966 -4.76048,-4.0602 0,0 -0.19188,-0.38547 -0.61923,-0.38547 l -3.60283,0 c -0.53009,0 -1.31313,0.32039 -1.31313,0.32039 l -8.43922,4.71761 c -0.82256,0.36152 -0.17439,1.16399 -0.17439,1.16399 l 2.01153,3.49886 c 0.4861,1.00582 1.63477,1.26457 1.63477,1.26457 l 4.06329,0 c 1.21853,0 1.11186,0.56969 1.11186,1.29424 l 0,12.09391 c 0,2.34893 1.26939,2.18769 1.26939,2.18769 z"
       style="fill:none;fill-rule:evenodd;stroke:#000000;stroke-width:0.70312464;stroke-linecap:butt;stroke-linejoin:miter;stroke-miterlimit:4;stroke-dasharray:none;stroke-opacity:1" />
    <rect
       style="opacity:1;fill:none;fill-opacity:1;stroke:#000000;stroke-width:0.70312464;stroke-linejoin:round;stroke-miterlimit:4;stroke-dasharray:none;stroke-opacity:1"
       id="rect8686"
       width="43.812355"
       height="43.644176"
       x="178.61935"
       y="114.58073"
       rx="5.6327271"
       ry="5.6111045" />
    <path
       id="path16015"
       style="fill:none;stroke:#000000;stroke-width:0.70312464;stroke-miterlimit:4;stroke-dasharray:none"
       d="m 111.22025,204.62299 0.26045,0.25946 0.26043,-0.25946 -0.26043,-0.25946 -0.26045,0.25946 m 0.26045,1.81609 0,3.6322" />
    <path
       id="path16025"
       style="fill:none;stroke:#000000;stroke-width:0.70312464;stroke-miterlimit:4;stroke-dasharray:none"
       d="m 129.71178,204.62299 0.26044,0.25946 0.26043,-0.25946 -0.26043,-0.25946 -0.26044,0.25946 m 0.26044,1.81609 0,3.6322" />
    <path
       id="path16039"
       style="fill:none;stroke:#000000;stroke-width:0.70312464;stroke-miterlimit:4;stroke-dasharray:none"
       d="m 159.92327,204.62299 0.26045,0.25946 0.26043,-0.25946 -0.26043,-0.25946 -0.26045,0.25946 m 0.26045,1.81609 0,3.6322" />
    <g
       id="g5033">
      <path
         d="m 46.109301,204.62299 0,5.44829 m 0,-5.44829 2.343996,0 0.781329,0.25946 0.26044,0.25935 0.260449,0.51892 0,0.51891 -0.260449,0.51891 -0.26044,0.25946 -0.781329,0.25936 -2.343996,0 m 1.823107,0 1.823107,2.85392"
         style="fill:none;stroke:#000000;stroke-width:0.70312464;stroke-miterlimit:4;stroke-dasharray:none"
         id="path15993" />
      <path
         d="m 51.318172,207.99573 3.125335,0 0,-0.51892 -0.260449,-0.51881 -0.26044,-0.25946 -0.52089,-0.25946 -0.781328,0 -0.52089,0.25946 -0.520888,0.51882 -0.26045,0.77837 0,0.51891 0.26045,0.77827 0.520888,0.51891 0.52089,0.25946 0.781328,0 0.52089,-0.25946 0.520889,-0.51891"
         style="fill:none;stroke:#000000;stroke-width:0.70312464;stroke-miterlimit:4;stroke-dasharray:none"
         id="path15995" />
      <path
         d="m 57.829271,204.62299 -0.520889,0 -0.520889,0.25946 -0.26044,0.77827 0,4.41056 m -0.781328,-3.6322 1.823106,0"
         style="fill:none;stroke:#000000;stroke-width:0.70312464;stroke-miterlimit:4;stroke-dasharray:none"
         id="path15997" />
      <path
         d="m 59.391939,206.43908 0,2.59447 0.260439,0.77827 0.520889,0.25946 0.781328,0 0.52089,-0.25946 0.781328,-0.77827 m 0,-2.59447 0,3.6322"
         style="fill:none;stroke:#000000;stroke-width:0.70312464;stroke-miterlimit:4;stroke-dasharray:none"
         id="path15999" />
      <path
         d="m 67.205251,206.43908 0,4.15111 -0.260444,0.77837 -0.260444,0.25936 -0.520888,0.25946 -0.781327,0 -0.520889,-0.25946 m 2.343992,-4.41056 -0.520888,-0.51882 -0.520888,-0.25946 -0.781327,0 -0.520889,0.25946 -0.520889,0.51882 -0.260439,0.77837 0,0.51891 0.260439,0.77827 0.520889,0.51891 0.520889,0.25946 0.781327,0 0.520888,-0.25946 0.520888,-0.51891"
         style="fill:none;stroke:#000000;stroke-width:0.70312464;stroke-miterlimit:4;stroke-dasharray:none"
         id="path16001" />
      <path
         d="m 69.02836,207.99573 3.125324,0 0,-0.51892 -0.260439,-0.51881 -0.260449,-0.25946 -0.52089,-0.25946 -0.781328,0 -0.52089,0.25946 -0.520888,0.51882 -0.26044,0.77837 0,0.51891 0.26044,0.77827 0.520888,0.51891 0.52089,0.25946 0.781328,0 0.52089,-0.25946 0.520888,-0.51891"
         style="fill:none;stroke:#000000;stroke-width:0.70312464;stroke-miterlimit:4;stroke-dasharray:none"
         id="path16003" />
      <path
         d="m 73.716352,207.99573 3.125325,0 0,-0.51892 -0.26045,-0.51881 -0.26044,-0.25946 -0.520888,-0.25946 -0.781329,0 -0.520889,0.25946 -0.52089,0.51882 -0.260439,0.77837 0,0.51891 0.260439,0.77827 0.52089,0.51891 0.520889,0.25946 0.781329,0 0.520888,-0.25946 0.52089,-0.51891"
         style="fill:none;stroke:#000000;stroke-width:0.70312464;stroke-miterlimit:4;stroke-dasharray:none"
         id="path16005" />
      <path
         d="m 87.780318,206.958 0,-0.25946 -0.26045,-0.25946 -0.26044,0 -0.260448,0.25946 -0.26044,0.51882 -0.52089,1.29728 -0.520888,0.77827 -0.52089,0.51891 -0.520879,0.25946 -1.041778,0 -0.520889,-0.25946 -0.26045,-0.25945 -0.260439,-0.51882 0,-0.51891 0.260439,-0.51891 0.26045,-0.25946 1.823107,-1.03773 0.260439,-0.25946 0.26045,-0.5189 0,-0.51892 -0.26045,-0.51881 -0.520879,-0.25946 -0.520889,0.25946 -0.26045,0.51881 0,0.51892 0.26045,0.77836 0.520889,0.77827 1.302218,1.8161 0.520879,0.51891 0.52089,0.25946 0.520888,0 0.26045,-0.25946 0,-0.25945"
         style="fill:none;stroke:#000000;stroke-width:0.70312464;stroke-miterlimit:4;stroke-dasharray:none"
         id="path16007" />
      <path
         d="m 93.770527,204.62299 0,5.44829"
         style="fill:none;stroke:#000000;stroke-width:0.70312464;stroke-miterlimit:4;stroke-dasharray:none"
         id="path16009" />
      <path
         d="m 95.854074,206.43908 0,3.6322 m 0,-2.59447 0.781329,-0.77827 0.520888,-0.25946 0.78134,0 0.520888,0.25946 0.26044,0.77827 0,2.59447 m 0,-2.59447 0.78133,-0.77827 0.520901,-0.25946 0.78131,0 0.5209,0.25946 0.26044,0.77827 0,2.59447"
         style="fill:none;stroke:#000000;stroke-width:0.70312464;stroke-miterlimit:4;stroke-dasharray:none"
         id="path16011" />
      <path
         d="m 103.6674,206.43908 0,3.6322 m 0,-2.59447 0.78132,-0.77827 0.52089,-0.25946 0.78134,0 0.52088,0.25946 0.26044,0.77827 0,2.59447 m 0,-2.59447 0.78133,-0.77827 0.52089,-0.25946 0.78133,0 0.52089,0.25946 0.26044,0.77827 0,2.59447"
         style="fill:none;stroke:#000000;stroke-width:0.70312464;stroke-miterlimit:4;stroke-dasharray:none"
         id="path16013" />
      <path
         d="m 116.42914,206.43908 0,4.15111 -0.26045,0.77837 -0.26044,0.25936 -0.52089,0.25946 -0.78133,0 -0.52087,-0.25946 m 2.34398,-4.41056 -0.52089,-0.51882 -0.52089,-0.25946 -0.78133,0 -0.52087,0.25946 -0.5209,0.51882 -0.26045,0.77837 0,0.51891 0.26045,0.77827 0.5209,0.51891 0.52087,0.25946 0.78133,0 0.52089,-0.25946 0.52089,-0.51891"
         style="fill:none;stroke:#000000;stroke-width:0.70312464;stroke-miterlimit:4;stroke-dasharray:none"
         id="path16017" />
      <path
         d="m 118.51269,206.43908 0,3.6322 m 0,-2.07555 0.26043,-0.77837 0.5209,-0.51882 0.5209,-0.25946 0.78132,0"
         style="fill:none;stroke:#000000;stroke-width:0.70312464;stroke-miterlimit:4;stroke-dasharray:none"
         id="path16019" />
      <path
         d="m 124.76335,206.43908 0,3.6322 m 0,-2.85392 -0.52089,-0.51882 -0.52089,-0.25946 -0.78133,0 -0.52089,0.25946 -0.52089,0.51882 -0.26045,0.77837 0,0.51891 0.26045,0.77827 0.52089,0.51891 0.52089,0.25946 0.78133,0 0.52089,-0.25946 0.52089,-0.51891"
         style="fill:none;stroke:#000000;stroke-width:0.70312464;stroke-miterlimit:4;stroke-dasharray:none"
         id="path16021" />
      <path
         d="m 127.10733,204.62299 0,4.41056 0.26044,0.77827 0.52089,0.25946 0.52089,0 m -2.08353,-3.6322 1.82309,0"
         style="fill:none;stroke:#000000;stroke-width:0.70312464;stroke-miterlimit:4;stroke-dasharray:none"
         id="path16023" />
      <path
         d="m 133.09755,206.43908 -0.52089,0.25946 -0.52089,0.51882 -0.26046,0.77837 0,0.51891 0.26046,0.77827 0.52089,0.51891 0.52089,0.25946 0.78132,0 0.52089,-0.25946 0.52089,-0.51891 0.26044,-0.77827 0,-0.51891 -0.26044,-0.77837 -0.52089,-0.51882 -0.52089,-0.25946 -0.78132,0"
         style="fill:none;stroke:#000000;stroke-width:0.70312464;stroke-miterlimit:4;stroke-dasharray:none"
         id="path16027" />
      <path
         d="m 137.00421,206.43908 0,3.6322 m 0,-2.59447 0.78132,-0.77827 0.52089,-0.25946 0.78133,0 0.52089,0.25946 0.26044,0.77827 0,2.59447"
         style="fill:none;stroke:#000000;stroke-width:0.70312464;stroke-miterlimit:4;stroke-dasharray:none"
         id="path16029" />
      <path
         d="m 142.21306,209.03355 -0.26044,0.25936 -0.26044,-0.25936 0.26044,-0.25946 0.26044,0.25946 0,0.51882 -0.52088,0.51891"
         style="fill:none;stroke:#000000;stroke-width:0.70312464;stroke-miterlimit:4;stroke-dasharray:none"
         id="path16031" />
      <path
         d="m 148.20329,204.62299 0,5.44829"
         style="fill:none;stroke:#000000;stroke-width:0.70312464;stroke-miterlimit:4;stroke-dasharray:none"
         id="path16033" />
      <path
         d="m 150.28685,206.43908 0,3.6322 m 0,-2.59447 0.78133,-0.77827 0.52088,-0.25946 0.78134,0 0.52088,0.25946 0.26046,0.77827 0,2.59447"
         style="fill:none;stroke:#000000;stroke-width:0.70312464;stroke-miterlimit:4;stroke-dasharray:none"
         id="path16035" />
      <path
         d="m 158.10017,204.62299 0,5.44829 m 0,-2.85392 -0.52089,-0.51882 -0.52089,-0.25946 -0.78132,0 -0.52089,0.25946 -0.5209,0.51882 -0.26045,0.77837 0,0.51891 0.26045,0.77827 0.5209,0.51891 0.52089,0.25946 0.78132,0 0.52089,-0.25946 0.52089,-0.51891"
         style="fill:none;stroke:#000000;stroke-width:0.70312464;stroke-miterlimit:4;stroke-dasharray:none"
         id="path16037" />
      <path
         d="m 165.13214,206.43908 0,4.15111 -0.26046,0.77837 -0.26042,0.25936 -0.52089,0.25946 -0.78133,0 -0.52089,-0.25946 m 2.34399,-4.41056 -0.52088,-0.51882 -0.52089,-0.25946 -0.78133,0 -0.52089,0.25946 -0.52089,0.51882 -0.26045,0.77837 0,0.51891 0.26045,0.77827 0.52089,0.51891 0.52089,0.25946 0.78133,0 0.52089,-0.25946 0.52088,-0.51891"
         style="fill:none;stroke:#000000;stroke-width:0.70312464;stroke-miterlimit:4;stroke-dasharray:none"
         id="path16041" />
      <path
         d="m 166.95524,207.99573 3.12533,0 0,-0.51892 -0.26044,-0.51881 -0.26044,-0.25946 -0.52089,-0.25946 -0.78133,0 -0.52089,0.25946 -0.52089,0.51882 -0.26045,0.77837 0,0.51891 0.26045,0.77827 0.52089,0.51891 0.52089,0.25946 0.78133,0 0.52089,-0.25946 0.52088,-0.51891"
         style="fill:none;stroke:#000000;stroke-width:0.70312464;stroke-miterlimit:4;stroke-dasharray:none"
         id="path16043" />
      <path
         d="m 171.90368,206.43908 0,3.6322 m 0,-2.59447 0.78134,-0.77827 0.52088,-0.25946 0.78133,0 0.52089,0.25946 0.26045,0.77827 0,2.59447"
         style="fill:none;stroke:#000000;stroke-width:0.70312464;stroke-miterlimit:4;stroke-dasharray:none"
         id="path16045" />
      <path
         d="m 177.8939,206.43908 -0.52088,0.25946 -0.52089,0.51882 -0.26045,0.77837 0,0.51891 0.26045,0.77827 0.52089,0.51891 0.52088,0.25946 0.78133,0 0.52089,-0.25946 0.52088,-0.51891 0.26044,-0.77827 0,-0.51891 -0.26044,-0.77837 -0.52088,-0.51882 -0.52089,-0.25946 -0.78133,0"
         style="fill:none;stroke:#000000;stroke-width:0.70312464;stroke-miterlimit:4;stroke-dasharray:none"
         id="path16047" />
      <path
         d="m 181.80054,206.43908 0,2.59447 0.26045,0.77827 0.52089,0.25946 0.78133,0 0.52088,-0.25946 0.78134,-0.77827 m 0,-2.59447 0,3.6322"
         style="fill:none;stroke:#000000;stroke-width:0.70312464;stroke-miterlimit:4;stroke-dasharray:none"
         id="path16049" />
      <path
         d="m 189.35343,207.21736 -0.26045,-0.51882 -0.78134,-0.25946 -0.78132,0 -0.78134,0.25946 -0.26043,0.51882 0.26043,0.51891 0.52089,0.25946 1.30222,0.25945 0.52089,0.25946 0.26045,0.51891 0,0.25936 -0.26045,0.51891 -0.78134,0.25946 -0.78132,0 -0.78134,-0.25946 -0.26043,-0.51891"
         style="fill:none;stroke:#000000;stroke-width:0.70312464;stroke-miterlimit:4;stroke-dasharray:none"
         id="path16051" />
      <path
         d="m 195.34364,204.62299 0,5.44829 m 0,-5.44829 2.34398,0 0.78134,0.25946 0.26045,0.25935 0.26043,0.51892 0,0.77836 -0.26043,0.51892 -0.26045,0.25936 -0.78134,0.25945 -2.34398,0"
         style="fill:none;stroke:#000000;stroke-width:0.70312464;stroke-miterlimit:4;stroke-dasharray:none"
         id="path16053" />
      <path
         d="m 200.55251,207.99573 3.12533,0 0,-0.51892 -0.26045,-0.51881 -0.26044,-0.25946 -0.52089,-0.25946 -0.78132,0 -0.52089,0.25946 -0.5209,0.51882 -0.26044,0.77837 0,0.51891 0.26044,0.77827 0.5209,0.51891 0.52089,0.25946 0.78132,0 0.52089,-0.25946 0.52089,-0.51891"
         style="fill:none;stroke:#000000;stroke-width:0.70312464;stroke-miterlimit:4;stroke-dasharray:none"
         id="path16055" />
      <path
         d="m 206.54272,206.43908 -0.52089,0.25946 -0.52089,0.51882 -0.26045,0.77837 0,0.51891 0.26045,0.77827 0.52089,0.51891 0.52089,0.25946 0.78132,0 0.52089,-0.25946 0.5209,-0.51891 0.26044,-0.77827 0,-0.51891 -0.26044,-0.77837 -0.5209,-0.51882 -0.52089,-0.25946 -0.78132,0"
         style="fill:none;stroke:#000000;stroke-width:0.70312464;stroke-miterlimit:4;stroke-dasharray:none"
         id="path16057" />
      <path
         d="m 210.44937,206.43908 0,5.4483 m 0,-4.67002 0.52089,-0.51882 0.52089,-0.25946 0.78133,0 0.5209,0.25946 0.52087,0.51882 0.26045,0.77837 0,0.51891 -0.26045,0.77827 -0.52087,0.51891 -0.5209,0.25946 -0.78133,0 -0.52089,-0.25946 -0.52089,-0.51891"
         style="fill:none;stroke:#000000;stroke-width:0.70312464;stroke-miterlimit:4;stroke-dasharray:none"
         id="path16059" />
      <path
         d="m 215.39781,204.62299 0,5.44829"
         style="fill:none;stroke:#000000;stroke-width:0.70312464;stroke-miterlimit:4;stroke-dasharray:none"
         id="path16061" />
      <path
         d="m 217.22092,207.99573 3.12531,0 0,-0.51892 -0.26045,-0.51881 -0.26043,-0.25946 -0.52089,-0.25946 -0.78131,0 -0.5209,0.25946 -0.5209,0.51882 -0.26043,0.77837 0,0.51891 0.26043,0.77827 0.5209,0.51891 0.5209,0.25946 0.78131,0 0.52089,-0.25946 0.52088,-0.51891"
         style="fill:none;stroke:#000000;stroke-width:0.70312464;stroke-miterlimit:4;stroke-dasharray:none"
         id="path16063" />
      <path
         d="m 222.42978,209.03355 -0.26044,0.25936 -0.26044,-0.25936 0.26044,-0.25946 0.26044,0.25946 0,0.51882 -0.52088,0.51891"
         style="fill:none;stroke:#000000;stroke-width:0.70312464;stroke-miterlimit:4;stroke-dasharray:none"
         id="path16065" />
      <path
         d="m 46.267654,214.60874 0,5.44829 m 0,-5.44829 2.083557,5.44829 m 2.083546,-5.44829 -2.083546,5.44829 m 2.083546,-5.44829 0,5.44829"
         style="fill:none;stroke:#000000;stroke-width:0.70312464;stroke-miterlimit:4;stroke-dasharray:none"
         id="path16067" />
      <path
         d="m 52.257864,217.98147 3.125335,0 0,-0.5189 -0.26045,-0.51882 -0.26044,-0.25946 -0.520888,-0.25945 -0.781329,0 -0.520889,0.25945 -0.520889,0.51882 -0.26045,0.77836 0,0.51892 0.26045,0.77827 0.520889,0.51891 0.520889,0.25946 0.781329,0 0.520888,-0.25946 0.52089,-0.51891"
         style="fill:none;stroke:#000000;stroke-width:0.70312464;stroke-miterlimit:4;stroke-dasharray:none"
         id="path16069" />
      <path
         d="m 57.206295,216.42484 0,3.63219 m 0,-2.59446 0.78133,-0.77828 0.520888,-0.25945 0.781329,0 0.520889,0.25945 0.26045,0.77828 0,2.59446"
         style="fill:none;stroke:#000000;stroke-width:0.70312464;stroke-miterlimit:4;stroke-dasharray:none"
         id="path16071" />
      <path
         d="m 62.415177,214.60874 0,4.41046 0.260439,0.77837 0.52088,0.25946 0.520888,0 m -2.083536,-3.63219 1.823098,0"
         style="fill:none;stroke:#000000;stroke-width:0.70312464;stroke-miterlimit:4;stroke-dasharray:none"
         id="path16073" />
      <path
         d="m 68.144945,216.42484 0,3.63219 m 0,-2.85392 -0.520889,-0.51882 -0.520889,-0.25945 -0.781328,0 -0.520888,0.25945 -0.520889,0.51882 -0.26045,0.77836 0,0.51892 0.26045,0.77827 0.520889,0.51891 0.520888,0.25946 0.781328,0 0.520889,-0.25946 0.520889,-0.51891"
         style="fill:none;stroke:#000000;stroke-width:0.70312464;stroke-miterlimit:4;stroke-dasharray:none"
         id="path16075" />
      <path
         d="m 70.228491,214.60874 0,5.44829"
         style="fill:none;stroke:#000000;stroke-width:0.70312464;stroke-miterlimit:4;stroke-dasharray:none"
         id="path16077" />
      <path
         d="m 76.479151,214.60874 0,5.44829 m 3.646203,-5.44829 0,5.44829 m -3.646203,-2.85392 3.646203,0"
         style="fill:none;stroke:#000000;stroke-width:0.70312464;stroke-miterlimit:4;stroke-dasharray:none"
         id="path16079" />
      <path
         d="m 81.948462,217.98147 3.125324,0 0,-0.5189 -0.26045,-0.51882 -0.260439,-0.25946 -0.520889,-0.25945 -0.781319,0 -0.520889,0.25945 -0.52089,0.51882 -0.260448,0.77836 0,0.51892 0.260448,0.77827 0.52089,0.51891 0.520889,0.25946 0.781319,0 0.520889,-0.25946 0.520889,-0.51891"
         style="fill:none;stroke:#000000;stroke-width:0.70312464;stroke-miterlimit:4;stroke-dasharray:none"
         id="path16081" />
      <path
         d="m 89.761788,216.42484 0,3.63219 m 0,-2.85392 -0.520889,-0.51882 -0.520889,-0.25945 -0.781329,0 -0.520889,0.25945 -0.520889,0.51882 -0.26045,0.77836 0,0.51892 0.26045,0.77827 0.520889,0.51891 0.520889,0.25946 0.781329,0 0.520889,-0.25946 0.520889,-0.51891"
         style="fill:none;stroke:#000000;stroke-width:0.70312464;stroke-miterlimit:4;stroke-dasharray:none"
         id="path16083" />
      <path
         d="m 91.845325,214.60874 0,5.44829"
         style="fill:none;stroke:#000000;stroke-width:0.70312464;stroke-miterlimit:4;stroke-dasharray:none"
         id="path16085" />
      <path
         d="m 94.189321,214.60874 0,4.41046 0.260439,0.77837 0.520889,0.25946 0.520889,0 m -2.083547,-3.63219 1.823108,0"
         style="fill:none;stroke:#000000;stroke-width:0.70312464;stroke-miterlimit:4;stroke-dasharray:none"
         id="path16087" />
      <path
         d="m 97.054215,214.60874 0,5.44829 m 0,-2.59446 0.781329,-0.77828 0.520889,-0.25945 0.781329,0 0.520881,0.25945 0.260449,0.77828 0,2.59446"
         style="fill:none;stroke:#000000;stroke-width:0.70312464;stroke-miterlimit:4;stroke-dasharray:none"
         id="path16089" />
      <path
         d="m 102.26307,219.0192 -0.26044,0.25946 -0.26044,-0.25946 0.26044,-0.25935 0.26044,0.25935 0,0.51892 -0.52088,0.51891"
         style="fill:none;stroke:#000000;stroke-width:0.70312464;stroke-miterlimit:4;stroke-dasharray:none"
         id="path16091" />
      <path
         d="m 109.5555,214.60874 -2.08355,5.44829 m 2.08355,-5.44829 2.08356,5.44829 m -3.38577,-1.8161 2.60444,0"
         style="fill:none;stroke:#000000;stroke-width:0.70312464;stroke-miterlimit:4;stroke-dasharray:none"
         id="path16093" />
      <path
         d="m 115.80615,214.60874 0,5.44829 m 0,-2.85392 -0.52088,-0.51882 -0.52089,-0.25945 -0.78133,0 -0.5209,0.25945 -0.52088,0.51882 -0.26045,0.77836 0,0.51892 0.26045,0.77827 0.52088,0.51891 0.5209,0.25946 0.78133,0 0.52089,-0.25946 0.52088,-0.51891"
         style="fill:none;stroke:#000000;stroke-width:0.70312464;stroke-miterlimit:4;stroke-dasharray:none"
         id="path16095" />
      <path
         d="m 120.75459,214.60874 0,5.44829 m 0,-2.85392 -0.52089,-0.51882 -0.52089,-0.25945 -0.78133,0 -0.52088,0.25945 -0.52089,0.51882 -0.26044,0.77836 0,0.51892 0.26044,0.77827 0.52089,0.51891 0.52088,0.25946 0.78133,0 0.52089,-0.25946 0.52089,-0.51891"
         style="fill:none;stroke:#000000;stroke-width:0.70312464;stroke-miterlimit:4;stroke-dasharray:none"
         id="path16097" />
      <path
         d="m 122.5777,214.60874 0.26044,0.25946 0.26044,-0.25946 -0.26044,-0.25946 -0.26044,0.25946 m 0.26044,1.8161 0,3.63219"
         style="fill:none;stroke:#000000;stroke-width:0.70312464;stroke-miterlimit:4;stroke-dasharray:none"
         id="path16099" />
      <path
         d="m 127.78658,217.20311 -0.52089,-0.51882 -0.5209,-0.25945 -0.78132,0 -0.52089,0.25945 -0.52088,0.51882 -0.26045,0.77836 0,0.51892 0.26045,0.77827 0.52088,0.51891 0.52089,0.25946 0.78132,0 0.5209,-0.25946 0.52089,-0.51891"
         style="fill:none;stroke:#000000;stroke-width:0.70312464;stroke-miterlimit:4;stroke-dasharray:none"
         id="path16101" />
      <path
         d="m 129.87013,214.60874 0,4.41046 0.26045,0.77837 0.52088,0.25946 0.52089,0 m -2.08355,-3.63219 1.82311,0"
         style="fill:none;stroke:#000000;stroke-width:0.70312464;stroke-miterlimit:4;stroke-dasharray:none"
         id="path16103" />
      <path
         d="m 132.47456,214.60874 0.26044,0.25946 0.26044,-0.25946 -0.26044,-0.25946 -0.26044,0.25946 m 0.26044,1.8161 0,3.63219"
         style="fill:none;stroke:#000000;stroke-width:0.70312464;stroke-miterlimit:4;stroke-dasharray:none"
         id="path16105" />
      <path
         d="m 135.86034,216.42484 -0.52089,0.25945 -0.52089,0.51882 -0.26045,0.77836 0,0.51892 0.26045,0.77827 0.52089,0.51891 0.52089,0.25946 0.78132,0 0.5209,-0.25946 0.52089,-0.51891 0.26044,-0.77827 0,-0.51892 -0.26044,-0.77836 -0.52089,-0.51882 -0.5209,-0.25945 -0.78132,0"
         style="fill:none;stroke:#000000;stroke-width:0.70312464;stroke-miterlimit:4;stroke-dasharray:none"
         id="path16107" />
      <path
         d="m 139.76699,216.42484 0,3.63219 m 0,-2.59446 0.78134,-0.77828 0.52088,-0.25945 0.78133,0 0.52089,0.25945 0.26045,0.77828 0,2.59446"
         style="fill:none;stroke:#000000;stroke-width:0.70312464;stroke-miterlimit:4;stroke-dasharray:none"
         id="path16109" />
      <path
         d="m 144.97586,219.0192 -0.26043,0.25946 -0.26044,-0.25946 0.26044,-0.25935 0.26043,0.25935 0,0.51892 -0.52087,0.51891"
         style="fill:none;stroke:#000000;stroke-width:0.70312464;stroke-miterlimit:4;stroke-dasharray:none"
         id="path16111" />
      <path
         d="m 150.18476,214.60874 2.08354,2.59437 0,2.85392 m 2.08356,-5.44829 -2.08356,2.59437"
         style="fill:none;stroke:#000000;stroke-width:0.70312464;stroke-miterlimit:4;stroke-dasharray:none"
         id="path16113" />
      <path
         d="m 156.69586,216.42484 -0.5209,0.25945 -0.52089,0.51882 -0.26044,0.77836 0,0.51892 0.26044,0.77827 0.52089,0.51891 0.5209,0.25946 0.78133,0 0.52087,-0.25946 0.52089,-0.51891 0.26044,-0.77827 0,-0.51892 -0.26044,-0.77836 -0.52089,-0.51882 -0.52087,-0.25945 -0.78133,0"
         style="fill:none;stroke:#000000;stroke-width:0.70312464;stroke-miterlimit:4;stroke-dasharray:none"
         id="path16115" />
      <path
         d="m 160.60251,216.42484 0,2.59436 0.26044,0.77837 0.52089,0.25946 0.78132,0 0.52089,-0.25946 0.78135,-0.77837 m 0,-2.59436 0,3.63219"
         style="fill:none;stroke:#000000;stroke-width:0.70312464;stroke-miterlimit:4;stroke-dasharray:none"
         id="path16117" />
      <path
         d="m 165.81138,214.60874 0,4.41046 0.26043,0.77837 0.5209,0.25946 0.52089,0 m -2.08355,-3.63219 1.82311,0"
         style="fill:none;stroke:#000000;stroke-width:0.70312464;stroke-miterlimit:4;stroke-dasharray:none"
         id="path16119" />
      <path
         d="m 168.67627,214.60874 0,5.44829 m 0,-2.59446 0.78133,-0.77828 0.5209,-0.25945 0.78132,0 0.52088,0.25945 0.26045,0.77828 0,2.59446"
         style="fill:none;stroke:#000000;stroke-width:0.70312464;stroke-miterlimit:4;stroke-dasharray:none"
         id="path16121" />
      <path
         d="m 173.88514,219.0192 -0.26044,0.25946 -0.26044,-0.25946 0.26044,-0.25935 0.26044,0.25935 0,0.51892 -0.52088,0.51891"
         style="fill:none;stroke:#000000;stroke-width:0.70312464;stroke-miterlimit:4;stroke-dasharray:none"
         id="path16123" />
      <path
         d="m 183.26112,215.38702 -0.52089,-0.51882 -0.78133,-0.25946 -1.04178,0 -0.78132,0.25946 -0.52089,0.51882 0,0.5189 0.26044,0.51892 0.26045,0.25945 0.52089,0.25946 1.56265,0.51882 0.52089,0.25945 0.26045,0.25945 0.26044,0.51892 0,0.77827 -0.52089,0.51891 -0.78133,0.25946 -1.04178,0 -0.78132,-0.25946 -0.52089,-0.51891"
         style="fill:none;stroke:#000000;stroke-width:0.70312464;stroke-miterlimit:4;stroke-dasharray:none"
         id="path16125" />
      <path
         d="m 184.82378,217.98147 3.12533,0 0,-0.5189 -0.26045,-0.51882 -0.26044,-0.25946 -0.52088,-0.25945 -0.78133,0 -0.5209,0.25945 -0.52089,0.51882 -0.26044,0.77836 0,0.51892 0.26044,0.77827 0.52089,0.51891 0.5209,0.25946 0.78133,0 0.52088,-0.25946 0.52089,-0.51891"
         style="fill:none;stroke:#000000;stroke-width:0.70312464;stroke-miterlimit:4;stroke-dasharray:none"
         id="path16127" />
      <path
         d="m 189.77223,216.42484 0,3.63219 m 0,-2.59446 0.78132,-0.77828 0.52089,-0.25945 0.78132,0 0.52089,0.25945 0.26045,0.77828 0,2.59446"
         style="fill:none;stroke:#000000;stroke-width:0.70312464;stroke-miterlimit:4;stroke-dasharray:none"
         id="path16129" />
      <path
         d="m 194.46021,214.60874 0.26044,0.25946 0.26044,-0.25946 -0.26044,-0.25946 -0.26044,0.25946 m 0.26044,1.8161 0,3.63219"
         style="fill:none;stroke:#000000;stroke-width:0.70312464;stroke-miterlimit:4;stroke-dasharray:none"
         id="path16131" />
      <path
         d="m 197.84598,216.42484 -0.52088,0.25945 -0.52088,0.51882 -0.26045,0.77836 0,0.51892 0.26045,0.77827 0.52088,0.51891 0.52088,0.25946 0.78133,0 0.52089,-0.25946 0.5209,-0.51891 0.26043,-0.77827 0,-0.51892 -0.26043,-0.77836 -0.5209,-0.51882 -0.52089,-0.25945 -0.78133,0"
         style="fill:none;stroke:#000000;stroke-width:0.70312464;stroke-miterlimit:4;stroke-dasharray:none"
         id="path16133" />
      <path
         d="m 201.75264,216.42484 0,3.63219 m 0,-2.07556 0.26043,-0.77836 0.52089,-0.51882 0.5209,-0.25945 0.78132,0"
         style="fill:none;stroke:#000000;stroke-width:0.70312464;stroke-miterlimit:4;stroke-dasharray:none"
         id="path16135" />
      <path
         d="m 207.74285,217.20311 -0.26045,-0.51882 -0.78133,-0.25945 -0.78132,0 -0.78135,0.25945 -0.26044,0.51882 0.26044,0.51891 0.52089,0.25945 1.30222,0.25946 0.52089,0.25946 0.26045,0.51881 0,0.25946 -0.26045,0.51891 -0.78133,0.25946 -0.78132,0 -0.78135,-0.25946 -0.26044,-0.51891"
         style="fill:none;stroke:#000000;stroke-width:0.70312464;stroke-miterlimit:4;stroke-dasharray:none"
         id="path16137" />
      <path
         d="m 48.128633,224.9236 -1.972739,5.17841 m 1.972739,-5.17841 1.972749,5.17841 m -3.205712,-1.72611 2.465926,0"
         style="fill:none;stroke:#000000;stroke-width:0.70312464;stroke-miterlimit:4;stroke-dasharray:none"
         id="path16139" />
      <path
         d="m 51.334345,224.9236 0,5.17841 m 0,-2.71253 0.493187,-0.49312 0.493187,-0.24665 0.739776,0 0.493187,0.24665 0.493188,0.49312 0.246588,0.73977 0,0.49321 -0.246588,0.73978 -0.493188,0.49321 -0.493187,0.24656 -0.739776,0 -0.493187,-0.24656 -0.493187,-0.49321"
         style="fill:none;stroke:#000000;stroke-width:0.70312464;stroke-miterlimit:4;stroke-dasharray:none"
         id="path16141" />
      <path
         d="m 56.019608,226.64971 0,2.46597 0.246599,0.73977 0.493187,0.24656 0.739776,0 0.493187,-0.24656 0.739776,-0.73977 m 0,-2.46597 0,3.4523"
         style="fill:none;stroke:#000000;stroke-width:0.70312464;stroke-miterlimit:4;stroke-dasharray:none"
         id="path16143" />
      <path
         d="m 63.170808,227.38948 -0.246588,-0.49312 -0.739786,-0.24665 -0.739776,0 -0.739776,0.24665 -0.246598,0.49312 0.246598,0.49321 0.493187,0.24656 1.232963,0.24665 0.493188,0.24656 0.246588,0.49322 0,0.24656 -0.246588,0.49321 -0.739786,0.24656 -0.739776,0 -0.739776,-0.24656 -0.246598,-0.49321"
         style="fill:none;stroke:#000000;stroke-width:0.70312464;stroke-miterlimit:4;stroke-dasharray:none"
         id="path16145" />
      <path
         d="m 64.65037,228.12925 2.95911,0 0,-0.49312 -0.24659,-0.49321 -0.246592,-0.24656 -0.493187,-0.24665 -0.739779,0 -0.493186,0.24665 -0.493188,0.49312 -0.246588,0.73977 0,0.49321 0.246588,0.73978 0.493188,0.49321 0.493186,0.24656 0.739779,0 0.493187,-0.24656 0.493182,-0.49321"
         style="fill:none;stroke:#000000;stroke-width:0.70312464;stroke-miterlimit:4;stroke-dasharray:none"
         id="path16147" />
      <path
         d="m 73.281128,223.93716 -4.438674,7.89106"
         style="fill:none;stroke:#000000;stroke-width:0.70312464;stroke-miterlimit:4;stroke-dasharray:none"
         id="path16149" />
      <path
         d="m 75.993643,224.9236 -1.972739,5.17841 m 1.972739,-5.17841 1.972749,5.17841 m -3.205712,-1.72611 2.465936,0"
         style="fill:none;stroke:#000000;stroke-width:0.70312464;stroke-miterlimit:4;stroke-dasharray:none"
         id="path16151" />
      <path
         d="m 81.665291,227.38948 -0.246599,-0.49312 -0.739776,-0.24665 -0.739776,0 -0.739785,0.24665 -0.246589,0.49312 0.246589,0.49321 0.493187,0.24656 1.232963,0.24665 0.493187,0.24656 0.246599,0.49322 0,0.24656 -0.246599,0.49321 -0.739776,0.24656 -0.739776,0 -0.739785,-0.24656 -0.246589,-0.49321"
         style="fill:none;stroke:#000000;stroke-width:0.70312464;stroke-miterlimit:4;stroke-dasharray:none"
         id="path16153" />
      <path
         d="m 85.857367,227.38948 -0.246589,-0.49312 -0.739785,-0.24665 -0.739776,0 -0.739776,0.24665 -0.246599,0.49312 0.246599,0.49321 0.493187,0.24656 1.232963,0.24665 0.493187,0.24656 0.246589,0.49322 0,0.24656 -0.246589,0.49321 -0.739785,0.24656 -0.739776,0 -0.739776,-0.24656 -0.246599,-0.49321"
         style="fill:none;stroke:#000000;stroke-width:0.70312464;stroke-miterlimit:4;stroke-dasharray:none"
         id="path16155" />
      <path
         d="m 90.296042,226.64971 0,3.4523 m 0,-2.71253 -0.493187,-0.49312 -0.493188,-0.24665 -0.739776,0 -0.493187,0.24665 -0.493187,0.49312 -0.246588,0.73977 0,0.49321 0.246588,0.73978 0.493187,0.49321 0.493187,0.24656 0.739776,0 0.493188,-0.24656 0.493187,-0.49321"
         style="fill:none;stroke:#000000;stroke-width:0.70312464;stroke-miterlimit:4;stroke-dasharray:none"
         id="path16157" />
      <path
         d="m 92.268791,226.64971 0,2.46597 0.246588,0.73977 0.493188,0.24656 0.739775,0 0.493187,-0.24656 0.739786,-0.73977 m 0,-2.46597 0,3.4523"
         style="fill:none;stroke:#000000;stroke-width:0.70312464;stroke-miterlimit:4;stroke-dasharray:none"
         id="path16159" />
      <path
         d="m 96.954064,224.9236 0,5.17841"
         style="fill:none;stroke:#000000;stroke-width:0.70312464;stroke-miterlimit:4;stroke-dasharray:none"
         id="path16161" />
      <path
         d="m 99.173391,224.9236 0,4.19208 0.24659,0.73977 0.493188,0.24656 0.493181,0 m -1.972735,-3.4523 1.726155,0"
         style="fill:none;stroke:#000000;stroke-width:0.70312464;stroke-miterlimit:4;stroke-dasharray:none"
         id="path16163" />
      <path
         d="m 102.13249,229.11568 -0.24658,0.24656 -0.24659,-0.24656 0.24659,-0.24666 0.24658,0.24666 0,0.49312 -0.49317,0.49321"
         style="fill:none;stroke:#000000;stroke-width:0.70312464;stroke-miterlimit:4;stroke-dasharray:none"
         id="path16165" />
      <path
         d="m 107.80414,224.9236 0,5.17841 m 0,-5.17841 3.20571,0 m -3.20571,2.46588 1.97275,0"
         style="fill:none;stroke:#000000;stroke-width:0.70312464;stroke-miterlimit:4;stroke-dasharray:none"
         id="path16167" />
      <path
         d="m 112.24282,226.64971 0,3.4523 m 0,-1.97276 0.24659,-0.73977 0.49319,-0.49312 0.49319,-0.24665 0.73977,0"
         style="fill:none;stroke:#000000;stroke-width:0.70312464;stroke-miterlimit:4;stroke-dasharray:none"
         id="path16169" />
      <path
         d="m 118.16105,226.64971 0,3.4523 m 0,-2.71253 -0.49318,-0.49312 -0.49319,-0.24665 -0.73978,0 -0.49318,0.24665 -0.49319,0.49312 -0.2466,0.73977 0,0.49321 0.2466,0.73978 0.49319,0.49321 0.49318,0.24656 0.73978,0 0.49319,-0.24656 0.49318,-0.49321"
         style="fill:none;stroke:#000000;stroke-width:0.70312464;stroke-miterlimit:4;stroke-dasharray:none"
         id="path16171" />
      <path
         d="m 120.13379,226.64971 0,3.4523 m 0,-2.46588 0.73978,-0.73977 0.49319,-0.24665 0.73978,0 0.49318,0.24665 0.2466,0.73977 0,2.46588"
         style="fill:none;stroke:#000000;stroke-width:0.70312464;stroke-miterlimit:4;stroke-dasharray:none"
         id="path16173" />
      <path
         d="m 127.53159,227.38948 -0.49319,-0.49312 -0.49318,-0.24665 -0.73978,0 -0.49319,0.24665 -0.49318,0.49312 -0.2466,0.73977 0,0.49321 0.2466,0.73978 0.49318,0.49321 0.49319,0.24656 0.73978,0 0.49318,-0.24656 0.49319,-0.49321"
         style="fill:none;stroke:#000000;stroke-width:0.70312464;stroke-miterlimit:4;stroke-dasharray:none"
         id="path16175" />
      <path
         d="m 130.24412,226.64971 -0.49319,0.24665 -0.49318,0.49312 -0.2466,0.73977 0,0.49321 0.2466,0.73978 0.49318,0.49321 0.49319,0.24656 0.73977,0 0.49319,-0.24656 0.49319,-0.49321 0.24659,-0.73978 0,-0.49321 -0.24659,-0.73977 -0.49319,-0.49312 -0.49319,-0.24665 -0.73977,0"
         style="fill:none;stroke:#000000;stroke-width:0.70312464;stroke-miterlimit:4;stroke-dasharray:none"
         id="path16177" />
      <path
         d="m 133.943,224.9236 0,5.17841 m 0,-2.46588 0.73978,-0.73977 0.49319,-0.24665 0.73977,0 0.49319,0.24665 0.24661,0.73977 0,2.46588"
         style="fill:none;stroke:#000000;stroke-width:0.70312464;stroke-miterlimit:4;stroke-dasharray:none"
         id="path16179" />
      <path
         d="m 139.61465,226.64971 -0.49318,0.24665 -0.49319,0.49312 -0.2466,0.73977 0,0.49321 0.2466,0.73978 0.49319,0.49321 0.49318,0.24656 0.73978,0 0.49319,-0.24656 0.49318,-0.49321 0.24659,-0.73978 0,-0.49321 -0.24659,-0.73977 -0.49318,-0.49312 -0.49319,-0.24665 -0.73978,0"
         style="fill:none;stroke:#000000;stroke-width:0.70312464;stroke-miterlimit:4;stroke-dasharray:none"
         id="path16181" />
      <path
         d="m 143.31354,226.64971 0,3.4523 m 0,-2.46588 0.73977,-0.73977 0.49319,-0.24665 0.7398,0 0.49318,0.24665 0.2466,0.73977 0,2.46588"
         style="fill:none;stroke:#000000;stroke-width:0.70312464;stroke-miterlimit:4;stroke-dasharray:none"
         id="path16183" />
      <path
         d="m 147.75222,228.12925 2.95912,0 0,-0.49312 -0.2466,-0.49321 -0.24659,-0.24656 -0.49319,-0.24665 -0.73977,0 -0.49319,0.24665 -0.49318,0.49312 -0.2466,0.73977 0,0.49321 0.2466,0.73978 0.49318,0.49321 0.49319,0.24656 0.73977,0 0.49319,-0.24656 0.49319,-0.49321"
         style="fill:none;stroke:#000000;stroke-width:0.70312464;stroke-miterlimit:4;stroke-dasharray:none"
         id="path16185" />
      <path
         d="m 154.90343,227.38948 -0.2466,-0.49312 -0.73977,-0.24665 -0.73978,0 -0.73979,0.24665 -0.24659,0.49312 0.24659,0.49321 0.49319,0.24656 1.23296,0.24665 0.49319,0.24656 0.2466,0.49322 0,0.24656 -0.2466,0.49321 -0.73977,0.24656 -0.73978,0 -0.73979,-0.24656 -0.24659,-0.49321"
         style="fill:none;stroke:#000000;stroke-width:0.70312464;stroke-miterlimit:4;stroke-dasharray:none"
         id="path16187" />
      <path
         d="m 156.87617,229.11568 -0.24659,0.24656 -0.24659,-0.24656 0.24659,-0.24666 0.24659,0.24666 0,0.49312 -0.49318,0.49321"
         style="fill:none;stroke:#000000;stroke-width:0.70312464;stroke-miterlimit:4;stroke-dasharray:none"
         id="path16189" />
      <path
         id="path16191"
         style="fill:none;stroke:#000000;stroke-width:0.70312464;stroke-miterlimit:4;stroke-dasharray:none"
         d="m 46.31901,235.15799 0,5.17842 m 0,-5.17842 3.205712,0 m -3.205712,2.46588 1.972749,0 m -1.972749,2.71254 3.205712,0" />
      <path
         id="path16193"
         style="fill:none;stroke:#000000;stroke-width:0.70312464;stroke-miterlimit:4;stroke-dasharray:none"
         d="m 51.004284,236.88409 0,3.45232 m 0,-2.46589 0.739775,-0.73977 0.493187,-0.24666 0.739786,0 0.493188,0.24666 0.246588,0.73977 0,2.46589 m 0,-2.46589 0.739776,-0.73977 0.493187,-0.24666 0.739786,0 0.493177,0.24666 0.246599,0.73977 0,2.46589" />
      <path
         id="path16195"
         style="fill:none;stroke:#000000;stroke-width:0.70312464;stroke-miterlimit:4;stroke-dasharray:none"
         d="m 58.402071,236.88409 0,5.17852 m 0,-4.43874 0.493188,-0.49312 0.493187,-0.24666 0.739776,0 0.493187,0.24666 0.493187,0.49312 0.246599,0.73977 0,0.49322 -0.246599,0.73977 -0.493187,0.49322 -0.493187,0.24656 -0.739776,0 -0.493187,-0.24656 -0.493188,-0.49322" />
      <path
         id="path16197"
         style="fill:none;stroke:#000000;stroke-width:0.70312464;stroke-miterlimit:4;stroke-dasharray:none"
         d="m 63.087335,235.15799 0,5.17842" />
      <path
         id="path16199"
         style="fill:none;stroke:#000000;stroke-width:0.70312464;stroke-miterlimit:4;stroke-dasharray:none"
         d="m 66.046461,236.88409 -0.49319,0.24666 -0.493188,0.49312 -0.246598,0.73977 0,0.49322 0.246598,0.73977 0.493188,0.49322 0.49319,0.24656 0.739776,0 0.493187,-0.24656 0.493192,-0.49322 0.246589,-0.73977 0,-0.49322 -0.246589,-0.73977 -0.493192,-0.49312 -0.493187,-0.24666 -0.739776,0" />
      <path
         id="path16201"
         style="fill:none;stroke:#000000;stroke-width:0.70312464;stroke-miterlimit:4;stroke-dasharray:none"
         d="m 69.252168,236.88409 1.479561,3.45232 m 1.479562,-3.45232 -1.479562,3.45232 -0.493186,0.98632 -0.493188,0.49322 -0.493187,0.24666 -0.246589,0" />
      <path
         id="path16203"
         style="fill:none;stroke:#000000;stroke-width:0.70312464;stroke-miterlimit:4;stroke-dasharray:none"
         d="m 73.690843,236.88409 0,3.45232 m 0,-2.46589 0.739776,-0.73977 0.493186,-0.24666 0.739786,0 0.493188,0.24666 0.246588,0.73977 0,2.46589 m 0,-2.46589 0.739776,-0.73977 0.493188,-0.24666 0.739785,0 0.493177,0.24666 0.246598,0.73977 0,2.46589" />
      <path
         id="path16205"
         style="fill:none;stroke:#000000;stroke-width:0.70312464;stroke-miterlimit:4;stroke-dasharray:none"
         d="m 80.842042,238.36364 2.959123,0 0,-0.49312 -0.246598,-0.49321 -0.246589,-0.24656 -0.493187,-0.24666 -0.739776,0 -0.493188,0.24666 -0.493186,0.49312 -0.246599,0.73977 0,0.49322 0.246599,0.73977 0.493186,0.49322 0.493188,0.24656 0.739776,0 0.493187,-0.24656 0.493187,-0.49322" />
      <path
         id="path16207"
         style="fill:none;stroke:#000000;stroke-width:0.70312464;stroke-miterlimit:4;stroke-dasharray:none"
         d="m 85.527315,236.88409 0,3.45232 m 0,-2.46589 0.739776,-0.73977 0.493188,-0.24666 0.739775,0 0.493187,0.24666 0.246599,0.73977 0,2.46589" />
      <path
         id="path16209"
         style="fill:none;stroke:#000000;stroke-width:0.70312464;stroke-miterlimit:4;stroke-dasharray:none"
         d="m 90.459177,235.15799 0,4.19208 0.246589,0.73978 0.493187,0.24656 0.493188,0 m -1.97274,-3.45232 1.726151,0" />
      <path
         id="path16211"
         style="fill:none;stroke:#000000;stroke-width:0.70312464;stroke-miterlimit:4;stroke-dasharray:none"
         d="m 93.418291,239.35007 -0.246589,0.24656 -0.246589,-0.24656 0.246589,-0.24665 0.246589,0.24665 0,0.49312 -0.493178,0.49322" />
      <path
         id="path16213"
         style="fill:none;stroke:#000000;stroke-width:0.70312464;stroke-miterlimit:4;stroke-dasharray:none"
         d="m 103.0354,235.15799 0,5.17842" />
      <path
         id="path16215"
         style="fill:none;stroke:#000000;stroke-width:0.70312464;stroke-miterlimit:4;stroke-dasharray:none"
         d="m 105.00816,236.88409 0,3.45232 m 0,-2.46589 0.73978,-0.73977 0.49318,-0.24666 0.73978,0 0.49318,0.24666 0.2466,0.73977 0,2.46589" />
      <path
         id="path16217"
         style="fill:none;stroke:#000000;stroke-width:0.70312464;stroke-miterlimit:4;stroke-dasharray:none"
         d="m 112.40595,237.62387 -0.4932,-0.49312 -0.49318,-0.24666 -0.73978,0 -0.49319,0.24666 -0.49318,0.49312 -0.2466,0.73977 0,0.49322 0.2466,0.73977 0.49318,0.49322 0.49319,0.24656 0.73978,0 0.49318,-0.24656 0.4932,-0.49322" />
      <path
         id="path16219"
         style="fill:none;stroke:#000000;stroke-width:0.70312464;stroke-miterlimit:4;stroke-dasharray:none"
         d="m 115.11847,236.88409 -0.49319,0.24666 -0.49318,0.49312 -0.2466,0.73977 0,0.49322 0.2466,0.73977 0.49318,0.49322 0.49319,0.24656 0.73978,0 0.49318,-0.24656 0.49319,-0.49322 0.24659,-0.73977 0,-0.49322 -0.24659,-0.73977 -0.49319,-0.49312 -0.49318,-0.24666 -0.73978,0" />
      <path
         id="path16221"
         style="fill:none;stroke:#000000;stroke-width:0.70312464;stroke-miterlimit:4;stroke-dasharray:none"
         d="m 118.81736,236.88409 0,3.45232 m 0,-2.46589 0.73977,-0.73977 0.49319,-0.24666 0.73979,0 0.49319,0.24666 0.24659,0.73977 0,2.46589 m 0,-2.46589 0.73977,-0.73977 0.49319,-0.24666 0.73978,0 0.49318,0.24666 0.2466,0.73977 0,2.46589" />
      <path
         id="path16223"
         style="fill:none;stroke:#000000;stroke-width:0.70312464;stroke-miterlimit:4;stroke-dasharray:none"
         d="m 125.96856,238.36364 2.95913,0 0,-0.49312 -0.2466,-0.49321 -0.24659,-0.24656 -0.4932,-0.24666 -0.73977,0 -0.49319,0.24666 -0.49319,0.49312 -0.24659,0.73977 0,0.49322 0.24659,0.73977 0.49319,0.49322 0.49319,0.24656 0.73977,0 0.4932,-0.24656 0.49319,-0.49322" />
      <path
         id="path16225"
         style="fill:none;stroke:#000000;stroke-width:0.70312464;stroke-miterlimit:4;stroke-dasharray:none"
         d="m 137.80503,235.89777 -0.49318,-0.49322 -0.73978,-0.24656 -0.98638,0 -0.73978,0.24656 -0.49318,0.49322 0,0.4932 0.24659,0.49312 0.24659,0.24666 0.49319,0.24656 1.47956,0.49321 0.49319,0.24656 0.2466,0.24656 0.24658,0.49322 0,0.73977 -0.49318,0.49322 -0.73978,0.24656 -0.98638,0 -0.73978,-0.24656 -0.49318,-0.49322" />
      <path
         id="path16227"
         style="fill:none;stroke:#000000;stroke-width:0.70312464;stroke-miterlimit:4;stroke-dasharray:none"
         d="m 139.53118,236.88409 0,2.46598 0.24659,0.73978 0.49319,0.24656 0.73977,0 0.49319,-0.24656 0.73978,-0.73978 m 0,-2.46598 0,3.45232" />
      <path
         id="path16229"
         style="fill:none;stroke:#000000;stroke-width:0.70312464;stroke-miterlimit:4;stroke-dasharray:none"
         d="m 144.21644,236.88409 0,5.17852 m 0,-4.43874 0.4932,-0.49312 0.49318,-0.24666 0.73979,0 0.49318,0.24666 0.49319,0.49312 0.2466,0.73977 0,0.49322 -0.2466,0.73977 -0.49319,0.49322 -0.49318,0.24656 -0.73979,0 -0.49318,-0.24656 -0.4932,-0.49322" />
      <path
         id="path16231"
         style="fill:none;stroke:#000000;stroke-width:0.70312464;stroke-miterlimit:4;stroke-dasharray:none"
         d="m 148.90172,236.88409 0,5.17852 m 0,-4.43874 0.49318,-0.49312 0.49319,-0.24666 0.73978,0 0.49318,0.24666 0.49319,0.49312 0.2466,0.73977 0,0.49322 -0.2466,0.73977 -0.49319,0.49322 -0.49318,0.24656 -0.73978,0 -0.49319,-0.24656 -0.49318,-0.49322" />
      <path
         id="path16233"
         style="fill:none;stroke:#000000;stroke-width:0.70312464;stroke-miterlimit:4;stroke-dasharray:none"
         d="m 154.57337,236.88409 -0.49319,0.24666 -0.49319,0.49312 -0.24659,0.73977 0,0.49322 0.24659,0.73977 0.49319,0.49322 0.49319,0.24656 0.73977,0 0.49319,-0.24656 0.49319,-0.49322 0.24658,-0.73977 0,-0.49322 -0.24658,-0.73977 -0.49319,-0.49312 -0.49319,-0.24666 -0.73977,0" />
      <path
         id="path16235"
         style="fill:none;stroke:#000000;stroke-width:0.70312464;stroke-miterlimit:4;stroke-dasharray:none"
         d="m 158.27226,236.88409 0,3.45232 m 0,-1.97277 0.24659,-0.73977 0.49319,-0.49312 0.49318,-0.24666 0.73978,0" />
      <path
         id="path16237"
         style="fill:none;stroke:#000000;stroke-width:0.70312464;stroke-miterlimit:4;stroke-dasharray:none"
         d="m 161.72457,235.15799 0,4.19208 0.24659,0.73978 0.49318,0.24656 0.49319,0 m -1.97274,-3.45232 1.72615,0" />
    </g>
  </g>
  <g
     transform="translate(0,3.9370078e-6)"
     id="layer4" />
</svg>
